<svg xmlns="http://www.w3.org/2000/svg" xmlns:xlink="http://www.w3.org/1999/xlink" width="1600" zoomAndPan="magnify" viewBox="0 0 1200 580.499983" height="774" preserveAspectRatio="xMidYMid meet" version="1.0"><defs><g/><clipPath id="57d3a29f17"><path d="M 0.515625 0 L 1199.484375 0 L 1199.484375 580 L 0.515625 580 Z M 0.515625 0 " clip-rule="nonzero"/></clipPath><clipPath id="62cb2fe090"><path d="M 593.75 59 L 748 59 L 748 306 L 593.75 306 Z M 593.75 59 " clip-rule="nonzero"/></clipPath><clipPath id="0aaf712174"><path d="M 444 58 L 597.585938 58 L 597.585938 305 L 444 305 Z M 444 58 " clip-rule="nonzero"/></clipPath></defs><g clip-path="url(#57d3a29f17)"><path fill="#ffffff" d="M 0.515625 0 L 1199.484375 0 L 1199.484375 580 L 0.515625 580 Z M 0.515625 0 " fill-opacity="1" fill-rule="nonzero"/></g><g fill="#00606e" fill-opacity="1"><g transform="translate(221.717623, 503.90417)"><g><path d="M 46.8125 -24.03125 C 46.8125 -19.144531 45.851562 -14.878906 43.9375 -11.234375 C 42.019531 -7.597656 39.304688 -4.816406 35.796875 -2.890625 C 32.296875 -0.960938 28.285156 0 23.765625 0 L 4.609375 0 L 4.609375 -47.359375 L 21.75 -47.359375 C 29.71875 -47.359375 35.882812 -45.34375 40.25 -41.3125 C 44.625 -37.289062 46.8125 -31.53125 46.8125 -24.03125 Z M 36.828125 -24.03125 C 36.828125 -29.113281 35.503906 -32.992188 32.859375 -35.671875 C 30.222656 -38.347656 26.453125 -39.6875 21.546875 -39.6875 L 14.515625 -39.6875 L 14.515625 -7.65625 L 22.921875 -7.65625 C 27.179688 -7.65625 30.5625 -9.125 33.0625 -12.0625 C 35.570312 -15 36.828125 -18.988281 36.828125 -24.03125 Z M 36.828125 -24.03125 "/></g></g></g><g fill="#00606e" fill-opacity="1"><g transform="translate(307.900434, 503.90417)"><g><path d="M 4.609375 0 L 4.609375 -47.359375 L 14.515625 -47.359375 L 14.515625 0 Z M 4.609375 0 "/></g></g></g><g fill="#00606e" fill-opacity="1"><g transform="translate(363.50248, 503.90417)"><g><path d="M 26.71875 -7.125 C 32.695312 -7.125 36.851562 -10.125 39.1875 -16.125 L 47.828125 -12.875 C 45.960938 -8.300781 43.234375 -4.898438 39.640625 -2.671875 C 36.046875 -0.441406 31.738281 0.671875 26.71875 0.671875 C 19.101562 0.671875 13.21875 -1.484375 9.0625 -5.796875 C 4.90625 -10.109375 2.828125 -16.140625 2.828125 -23.890625 C 2.828125 -31.671875 4.832031 -37.644531 8.84375 -41.8125 C 12.851562 -45.976562 18.664062 -48.0625 26.28125 -48.0625 C 31.832031 -48.0625 36.351562 -46.945312 39.84375 -44.71875 C 43.34375 -42.488281 45.800781 -39.210938 47.21875 -34.890625 L 38.484375 -32.5 C 37.742188 -34.875 36.289062 -36.757812 34.125 -38.15625 C 31.96875 -39.5625 29.421875 -40.265625 26.484375 -40.265625 C 22.003906 -40.265625 18.601562 -38.875 16.28125 -36.09375 C 13.957031 -33.3125 12.796875 -29.242188 12.796875 -23.890625 C 12.796875 -18.453125 13.988281 -14.296875 16.375 -11.421875 C 18.769531 -8.554688 22.21875 -7.125 26.71875 -7.125 Z M 26.71875 -7.125 "/></g></g></g><g fill="#00606e" fill-opacity="1"><g transform="translate(449.685291, 503.90417)"><g><path d="M 25.984375 -39.6875 L 25.984375 0 L 16.0625 0 L 16.0625 -39.6875 L 0.765625 -39.6875 L 0.765625 -47.359375 L 41.296875 -47.359375 L 41.296875 -39.6875 Z M 25.984375 -39.6875 "/></g></g></g><g fill="#00606e" fill-opacity="1"><g transform="translate(528.206109, 503.90417)"><g><path d="M 4.609375 0 L 4.609375 -47.359375 L 14.515625 -47.359375 L 14.515625 0 Z M 4.609375 0 "/></g></g></g><g fill="#00606e" fill-opacity="1"><g transform="translate(583.808154, 503.90417)"><g><path d="M 50.640625 -23.890625 C 50.640625 -18.960938 49.664062 -14.628906 47.71875 -10.890625 C 45.769531 -7.148438 42.976562 -4.285156 39.34375 -2.296875 C 35.71875 -0.316406 31.488281 0.671875 26.65625 0.671875 C 19.21875 0.671875 13.382812 -1.515625 9.15625 -5.890625 C 4.9375 -10.273438 2.828125 -16.273438 2.828125 -23.890625 C 2.828125 -31.484375 4.929688 -37.410156 9.140625 -41.671875 C 13.347656 -45.929688 19.207031 -48.0625 26.71875 -48.0625 C 34.21875 -48.0625 40.078125 -45.910156 44.296875 -41.609375 C 48.523438 -37.304688 50.640625 -31.398438 50.640625 -23.890625 Z M 40.53125 -23.890625 C 40.53125 -29.003906 39.316406 -33.007812 36.890625 -35.90625 C 34.472656 -38.8125 31.082031 -40.265625 26.71875 -40.265625 C 22.28125 -40.265625 18.847656 -38.820312 16.421875 -35.9375 C 14.003906 -33.0625 12.796875 -29.046875 12.796875 -23.890625 C 12.796875 -18.691406 14.035156 -14.597656 16.515625 -11.609375 C 18.992188 -8.617188 22.375 -7.125 26.65625 -7.125 C 31.09375 -7.125 34.515625 -8.578125 36.921875 -11.484375 C 39.328125 -14.398438 40.53125 -18.535156 40.53125 -23.890625 Z M 40.53125 -23.890625 "/></g></g></g><g fill="#00606e" fill-opacity="1"><g transform="translate(673.821986, 503.90417)"><g><path d="M 33.4375 0 L 12.796875 -36.46875 C 13.203125 -32.925781 13.40625 -30.078125 13.40625 -27.921875 L 13.40625 0 L 4.609375 0 L 4.609375 -47.359375 L 15.9375 -47.359375 L 36.875 -10.59375 C 36.46875 -13.96875 36.265625 -17.046875 36.265625 -19.828125 L 36.265625 -47.359375 L 45.0625 -47.359375 L 45.0625 0 Z M 33.4375 0 "/></g></g></g><g fill="#00606e" fill-opacity="1"><g transform="translate(760.004798, 503.90417)"><g><path d="M 38.078125 0 L 33.875 -12.09375 L 15.828125 -12.09375 L 11.625 0 L 1.71875 0 L 18.984375 -47.359375 L 30.6875 -47.359375 L 47.890625 0 Z M 24.828125 -40.0625 L 24.640625 -39.328125 C 24.410156 -38.515625 24.140625 -37.59375 23.828125 -36.5625 C 23.515625 -35.53125 21.585938 -29.863281 18.046875 -19.5625 L 31.65625 -19.5625 L 26.984375 -33.171875 L 25.546875 -37.734375 Z M 24.828125 -40.0625 "/></g></g></g><g fill="#00606e" fill-opacity="1"><g transform="translate(846.187609, 503.90417)"><g><path d="M 37.140625 0 L 26.140625 -17.984375 L 14.515625 -17.984375 L 14.515625 0 L 4.609375 0 L 4.609375 -47.359375 L 28.265625 -47.359375 C 33.910156 -47.359375 38.265625 -46.140625 41.328125 -43.703125 C 44.398438 -41.273438 45.9375 -37.785156 45.9375 -33.234375 C 45.9375 -29.921875 44.992188 -27.054688 43.109375 -24.640625 C 41.234375 -22.234375 38.691406 -20.648438 35.484375 -19.890625 L 48.296875 0 Z M 35.953125 -32.828125 C 35.953125 -37.378906 33.039062 -39.65625 27.21875 -39.65625 L 14.515625 -39.65625 L 14.515625 -25.671875 L 27.484375 -25.671875 C 30.265625 -25.671875 32.367188 -26.296875 33.796875 -27.546875 C 35.234375 -28.804688 35.953125 -30.566406 35.953125 -32.828125 Z M 35.953125 -32.828125 "/></g></g></g><g fill="#00606e" fill-opacity="1"><g transform="translate(932.370421, 503.90417)"><g><path d="M 27.921875 -19.421875 L 27.921875 0 L 18.046875 0 L 18.046875 -19.421875 L 1.171875 -47.359375 L 11.5625 -47.359375 L 22.921875 -27.328125 L 34.421875 -47.359375 L 44.796875 -47.359375 Z M 27.921875 -19.421875 "/></g></g></g><g clip-path="url(#62cb2fe090)"><path fill="#4a1085" d="M 742.582031 157.570312 C 742.167969 156.894531 741.722656 156.238281 741.246094 155.609375 C 740.769531 154.976562 740.261719 154.367188 739.722656 153.785156 C 739.1875 153.203125 738.625 152.648438 738.03125 152.121094 C 737.441406 151.59375 736.824219 151.097656 736.1875 150.628906 C 735.546875 150.164062 734.882812 149.730469 734.203125 149.328125 C 733.519531 148.925781 732.820312 148.558594 732.101562 148.222656 C 731.382812 147.890625 730.648438 147.59375 729.902344 147.332031 C 729.152344 147.070312 728.394531 146.847656 727.625 146.660156 C 726.855469 146.472656 726.078125 146.324219 725.292969 146.210938 C 724.507812 146.101562 723.722656 146.027344 722.929688 145.992188 C 722.136719 145.960938 721.347656 145.964844 720.554688 146.007812 C 719.765625 146.050781 718.980469 146.136719 718.195312 146.253906 C 717.414062 146.375 716.636719 146.535156 715.871094 146.730469 C 715.101562 146.929688 714.347656 147.164062 713.601562 147.433594 C 712.859375 147.703125 712.128906 148.011719 711.414062 148.351562 C 710.699219 148.695312 710.003906 149.070312 709.328125 149.480469 C 708.882812 149.753906 708.402344 149.929688 707.886719 150.007812 C 707.371094 150.089844 706.859375 150.066406 706.351562 149.945312 C 705.847656 149.820312 705.382812 149.605469 704.960938 149.296875 C 704.539062 148.992188 704.195312 148.613281 703.921875 148.167969 C 703.652344 147.722656 703.476562 147.242188 703.398438 146.726562 C 703.316406 146.210938 703.339844 145.699219 703.460938 145.195312 C 703.585938 144.6875 703.800781 144.222656 704.109375 143.804688 C 704.414062 143.382812 704.792969 143.035156 705.238281 142.765625 C 706.027344 142.285156 706.835938 141.839844 707.667969 141.429688 C 708.496094 141.019531 709.339844 140.644531 710.199219 140.308594 C 711.0625 139.96875 711.9375 139.671875 712.824219 139.410156 C 713.710938 139.148438 714.605469 138.925781 715.511719 138.738281 C 716.417969 138.554688 717.332031 138.410156 718.25 138.304688 C 719.167969 138.199219 720.089844 138.132812 721.015625 138.109375 C 721.9375 138.082031 722.863281 138.097656 723.785156 138.148438 C 724.710938 138.203125 725.628906 138.296875 726.542969 138.429688 C 727.457031 138.5625 728.367188 138.738281 729.265625 138.949219 C 730.167969 139.160156 731.054688 139.410156 731.933594 139.699219 C 732.8125 139.988281 733.679688 140.3125 734.527344 140.675781 C 735.378906 141.039062 736.210938 141.4375 737.027344 141.875 C 737.84375 142.308594 738.640625 142.777344 739.414062 143.28125 C 740.191406 143.785156 740.941406 144.324219 741.671875 144.890625 C 742.402344 145.460938 743.105469 146.058594 743.78125 146.691406 C 744.457031 147.320312 745.105469 147.976562 745.726562 148.664062 C 747.238281 141.421875 747.574219 134.128906 746.738281 126.78125 C 746.21875 122.542969 745.121094 118.464844 743.449219 114.539062 C 741.78125 110.613281 739.597656 106.992188 736.90625 103.683594 C 736.144531 107.730469 734.660156 111.492188 732.449219 114.96875 C 732.167969 115.40625 731.8125 115.777344 731.386719 116.074219 C 730.957031 116.371094 730.488281 116.574219 729.980469 116.6875 C 729.472656 116.800781 728.960938 116.808594 728.445312 116.71875 C 727.933594 116.625 727.457031 116.4375 727.019531 116.160156 C 726.578125 115.878906 726.210938 115.523438 725.914062 115.09375 C 725.613281 114.667969 725.410156 114.199219 725.296875 113.691406 C 725.183594 113.183594 725.175781 112.671875 725.265625 112.15625 C 725.355469 111.644531 725.542969 111.167969 725.824219 110.730469 C 727.199219 108.5625 728.207031 106.238281 728.84375 103.753906 C 729.484375 101.269531 729.726562 98.746094 729.566406 96.1875 C 729.550781 95.996094 729.550781 95.808594 729.566406 95.621094 C 729.476562 94.667969 729.339844 93.726562 729.152344 92.785156 C 728.96875 91.847656 728.734375 90.921875 728.453125 90.007812 C 728.175781 89.09375 727.847656 88.195312 727.476562 87.316406 C 727.105469 86.433594 726.6875 85.574219 726.230469 84.734375 C 725.769531 83.898438 725.269531 83.085938 724.726562 82.296875 C 724.183594 81.507812 723.601562 80.75 722.980469 80.023438 C 722.359375 79.296875 721.703125 78.601562 721.015625 77.941406 C 720.324219 77.28125 719.601562 76.65625 718.84375 76.066406 C 718.089844 75.480469 717.308594 74.933594 716.496094 74.425781 C 715.6875 73.917969 714.851562 73.453125 713.992188 73.03125 C 713.136719 72.609375 712.257812 72.234375 711.359375 71.902344 C 710.464844 71.570312 709.554688 71.28125 708.628906 71.042969 C 707.703125 70.804688 706.765625 70.613281 705.820312 70.46875 C 704.875 70.324219 703.925781 70.230469 702.96875 70.183594 C 702.015625 70.136719 701.058594 70.136719 700.105469 70.191406 C 699.148438 70.242188 698.199219 70.339844 697.253906 70.488281 L 697.058594 70.535156 C 694.839844 70.878906 692.710938 71.523438 690.671875 72.464844 C 688.632812 73.40625 686.761719 74.605469 685.058594 76.070312 C 684.863281 76.246094 684.652344 76.398438 684.425781 76.527344 C 684.203125 76.660156 683.964844 76.765625 683.71875 76.851562 C 683.472656 76.9375 683.21875 76.996094 682.960938 77.03125 C 682.703125 77.0625 682.441406 77.070312 682.183594 77.054688 C 681.921875 77.035156 681.664062 76.992188 681.414062 76.925781 C 681.164062 76.855469 680.921875 76.765625 680.6875 76.648438 C 680.453125 76.53125 680.234375 76.390625 680.027344 76.230469 C 679.824219 76.070312 679.636719 75.890625 679.464844 75.695312 C 679.292969 75.496094 679.144531 75.28125 679.019531 75.054688 C 678.890625 74.828125 678.785156 74.589844 678.707031 74.34375 C 678.625 74.09375 678.570312 73.839844 678.539062 73.582031 C 678.511719 73.320312 678.507812 73.0625 678.527344 72.800781 C 678.550781 72.542969 678.597656 72.289062 678.671875 72.035156 C 678.742188 71.785156 678.839844 71.546875 678.960938 71.3125 C 679.082031 71.082031 679.222656 70.867188 679.386719 70.664062 C 679.550781 70.460938 679.730469 70.273438 679.933594 70.105469 C 682.414062 67.972656 685.160156 66.261719 688.171875 64.96875 C 684.519531 63.09375 680.691406 61.699219 676.6875 60.789062 C 666.621094 58.75 654.128906 59.949219 644.574219 66.726562 C 648.40625 68.230469 651.796875 70.414062 654.753906 73.28125 C 655.109375 73.644531 655.382812 74.066406 655.578125 74.539062 C 655.769531 75.011719 655.867188 75.503906 655.867188 76.015625 C 655.871094 76.527344 655.773438 77.019531 655.585938 77.492188 C 655.394531 77.964844 655.121094 78.386719 654.765625 78.753906 C 654.410156 79.121094 654 79.410156 653.53125 79.617188 C 653.066406 79.824219 652.578125 79.9375 652.066406 79.953125 C 651.554688 79.972656 651.058594 79.890625 650.582031 79.714844 C 650.101562 79.539062 649.671875 79.277344 649.292969 78.9375 C 647.71875 77.410156 645.964844 76.136719 644.023438 75.113281 C 642.085938 74.089844 640.042969 73.363281 637.894531 72.925781 L 637.707031 72.878906 C 636.507812 72.648438 635.296875 72.496094 634.078125 72.429688 C 632.859375 72.363281 631.640625 72.378906 630.421875 72.476562 C 629.207031 72.574219 628 72.753906 626.808594 73.015625 C 625.613281 73.277344 624.445312 73.617188 623.296875 74.039062 C 622.152344 74.457031 621.039062 74.953125 619.960938 75.527344 C 618.878906 76.097656 617.84375 76.742188 616.851562 77.453125 C 615.859375 78.164062 614.921875 78.941406 614.035156 79.78125 C 613.148438 80.621094 612.324219 81.519531 611.558594 82.472656 C 610.792969 83.421875 610.097656 84.421875 609.46875 85.46875 C 608.839844 86.519531 608.285156 87.601562 607.804688 88.726562 C 607.324219 89.847656 606.921875 90.996094 606.597656 92.175781 C 606.269531 93.351562 606.027344 94.546875 605.863281 95.757812 C 605.703125 96.96875 605.621094 98.183594 605.625 99.402344 C 605.628906 100.625 605.714844 101.839844 605.882812 103.050781 C 606.050781 104.261719 606.296875 105.453125 606.628906 106.628906 C 606.957031 107.804688 607.367188 108.953125 607.851562 110.074219 C 607.96875 110.25 608.070312 110.433594 608.160156 110.625 C 609.371094 113.3125 611.042969 115.683594 613.167969 117.726562 C 613.542969 118.089844 613.835938 118.511719 614.042969 118.988281 C 614.25 119.46875 614.359375 119.96875 614.367188 120.488281 C 614.375 121.011719 614.285156 121.515625 614.09375 122 C 613.902344 122.484375 613.625 122.914062 613.261719 123.289062 C 612.898438 123.664062 612.480469 123.957031 612 124.164062 C 611.523438 124.371094 611.023438 124.480469 610.5 124.488281 C 609.980469 124.496094 609.476562 124.40625 608.992188 124.214844 C 608.507812 124.023438 608.078125 123.746094 607.703125 123.382812 C 605.585938 121.34375 603.796875 119.050781 602.339844 116.496094 C 600.808594 118.515625 599.558594 120.699219 598.589844 123.042969 C 597.625 125.382812 596.96875 127.8125 596.632812 130.324219 C 595.078125 140.203125 596.828125 149.640625 602.433594 157.800781 C 602.675781 157.578125 602.945312 157.390625 603.238281 157.242188 C 607.816406 154.910156 612.675781 153.746094 617.8125 153.75 C 618.335938 153.75 618.835938 153.847656 619.320312 154.046875 C 619.800781 154.246094 620.226562 154.53125 620.59375 154.902344 C 620.964844 155.269531 621.246094 155.695312 621.449219 156.175781 C 621.648438 156.660156 621.746094 157.160156 621.746094 157.679688 C 621.746094 158.203125 621.648438 158.703125 621.449219 159.1875 C 621.246094 159.667969 620.964844 160.09375 620.59375 160.460938 C 620.226562 160.832031 619.800781 161.113281 619.320312 161.3125 C 618.835938 161.515625 618.335938 161.613281 617.8125 161.613281 C 614.234375 161.601562 610.824219 162.359375 607.582031 163.886719 C 606.46875 164.457031 605.398438 165.097656 604.371094 165.808594 C 603.34375 166.519531 602.371094 167.296875 601.445312 168.136719 C 600.519531 168.980469 599.65625 169.878906 598.855469 170.835938 C 598.050781 171.792969 597.3125 172.796875 596.644531 173.855469 C 595.972656 174.910156 595.378906 176.003906 594.855469 177.140625 C 594.332031 178.273438 593.886719 179.4375 593.515625 180.632812 C 593.148438 181.828125 592.863281 183.042969 592.65625 184.273438 C 592.449219 185.507812 592.328125 186.75 592.285156 187.996094 C 592.246094 189.246094 592.289062 190.492188 592.414062 191.734375 C 592.542969 192.980469 592.75 194.210938 593.039062 195.425781 C 593.328125 196.640625 593.699219 197.832031 594.148438 198.996094 C 594.597656 200.164062 595.121094 201.296875 595.722656 202.390625 C 596.324219 203.488281 596.992188 204.539062 597.734375 205.546875 C 598.472656 206.554688 599.277344 207.507812 600.144531 208.40625 C 601.015625 209.304688 601.9375 210.144531 602.917969 210.917969 C 603.898438 211.695312 604.921875 212.402344 605.996094 213.042969 C 609.644531 215.078125 613.554688 216.09375 617.730469 216.097656 C 618.25 216.097656 618.753906 216.195312 619.234375 216.394531 C 619.714844 216.59375 620.140625 216.878906 620.507812 217.25 C 620.878906 217.617188 621.164062 218.042969 621.363281 218.523438 C 621.5625 219.007812 621.660156 219.507812 621.660156 220.027344 C 621.660156 220.550781 621.5625 221.050781 621.363281 221.535156 C 621.164062 222.015625 620.878906 222.441406 620.507812 222.808594 C 620.140625 223.179688 619.714844 223.460938 619.234375 223.664062 C 618.753906 223.863281 618.25 223.960938 617.730469 223.960938 C 614.84375 223.964844 612.011719 223.582031 609.230469 222.816406 C 606.449219 222.050781 603.820312 220.929688 601.34375 219.453125 L 601.179688 219.347656 C 600.457031 220.609375 599.820312 221.914062 599.269531 223.265625 C 598.722656 224.613281 598.265625 225.988281 597.898438 227.398438 C 597.53125 228.808594 597.261719 230.234375 597.085938 231.679688 C 596.910156 233.125 596.832031 234.574219 596.847656 236.03125 C 596.867188 237.484375 596.980469 238.933594 597.191406 240.371094 C 597.402344 241.8125 597.707031 243.234375 598.105469 244.632812 C 598.503906 246.03125 598.996094 247.398438 599.578125 248.734375 C 600.160156 250.066406 600.828125 251.355469 601.582031 252.601562 L 601.660156 252.53125 C 604.914062 250.039062 608.527344 248.292969 612.5 247.285156 C 613.003906 247.15625 613.515625 247.128906 614.03125 247.203125 C 614.546875 247.277344 615.027344 247.445312 615.476562 247.710938 C 615.925781 247.976562 616.308594 248.316406 616.621094 248.734375 C 616.933594 249.152344 617.15625 249.613281 617.285156 250.117188 C 617.417969 250.621094 617.445312 251.132812 617.371094 251.648438 C 617.300781 252.164062 617.132812 252.648438 616.867188 253.097656 C 616.601562 253.546875 616.261719 253.925781 615.847656 254.242188 C 615.429688 254.554688 614.96875 254.777344 614.464844 254.910156 C 611.53125 255.652344 608.863281 256.945312 606.460938 258.789062 C 606.28125 258.925781 606.085938 259.046875 605.886719 259.15625 C 605.160156 259.746094 604.464844 260.375 603.808594 261.039062 C 603.148438 261.707031 602.527344 262.402344 601.941406 263.136719 C 601.359375 263.867188 600.816406 264.628906 600.3125 265.417969 C 599.8125 266.207031 599.351562 267.023438 598.9375 267.863281 C 598.523438 268.703125 598.152344 269.5625 597.832031 270.441406 C 597.507812 271.320312 597.234375 272.214844 597.003906 273.121094 C 596.777344 274.03125 596.601562 274.949219 596.472656 275.875 C 596.34375 276.804688 596.265625 277.734375 596.238281 278.671875 C 596.210938 279.605469 596.230469 280.542969 596.300781 281.476562 C 596.375 282.410156 596.496094 283.335938 596.667969 284.257812 C 596.839844 285.175781 597.058594 286.085938 597.328125 286.984375 C 597.597656 287.878906 597.914062 288.757812 598.277344 289.621094 C 598.640625 290.484375 599.046875 291.328125 599.503906 292.144531 C 599.957031 292.964844 600.453125 293.757812 600.992188 294.523438 C 601.527344 295.289062 602.105469 296.023438 602.726562 296.726562 C 603.34375 297.433594 603.996094 298.101562 604.683594 298.734375 C 605.375 299.367188 606.097656 299.964844 606.847656 300.519531 C 607.601562 301.078125 608.382812 301.589844 609.191406 302.0625 C 610 302.535156 610.832031 302.964844 611.683594 303.347656 C 612.539062 303.730469 613.410156 304.066406 614.300781 304.355469 C 615.191406 304.644531 616.097656 304.886719 617.011719 305.082031 C 617.929688 305.273438 618.851562 305.417969 619.785156 305.511719 C 620.714844 305.605469 621.648438 305.648438 622.585938 305.640625 C 623.523438 305.632812 624.457031 305.578125 625.386719 305.46875 C 626.316406 305.363281 627.238281 305.207031 628.152344 305 C 629.066406 304.796875 629.964844 304.542969 630.851562 304.238281 C 631.738281 303.9375 632.605469 303.589844 633.453125 303.195312 C 634.304688 302.796875 635.128906 302.359375 635.929688 301.875 C 636.730469 301.390625 637.503906 300.863281 638.25 300.296875 C 638.996094 299.730469 639.707031 299.125 640.390625 298.484375 C 641.070312 297.839844 641.714844 297.160156 642.320312 296.449219 C 642.929688 295.738281 643.496094 294.992188 644.023438 294.21875 C 644.113281 293.9375 644.238281 293.671875 644.390625 293.421875 C 645.515625 291.566406 646.351562 289.589844 646.902344 287.488281 C 646.957031 287.230469 647.039062 286.980469 647.144531 286.738281 C 647.253906 286.496094 647.382812 286.269531 647.535156 286.050781 C 647.6875 285.835938 647.863281 285.636719 648.054688 285.457031 C 648.246094 285.277344 648.457031 285.117188 648.683594 284.976562 C 648.90625 284.839844 649.144531 284.726562 649.394531 284.632812 C 649.640625 284.542969 649.894531 284.476562 650.15625 284.4375 C 650.417969 284.398438 650.683594 284.386719 650.945312 284.398438 C 651.210938 284.414062 651.46875 284.453125 651.726562 284.519531 C 651.984375 284.585938 652.230469 284.675781 652.46875 284.792969 C 652.703125 284.910156 652.929688 285.046875 653.136719 285.207031 C 653.347656 285.371094 653.539062 285.550781 653.714844 285.75 C 653.886719 285.949219 654.039062 286.164062 654.167969 286.394531 C 654.296875 286.625 654.402344 286.867188 654.484375 287.117188 C 654.566406 287.371094 654.621094 287.628906 654.652344 287.890625 C 654.679688 288.152344 654.683594 288.417969 654.660156 288.679688 C 654.636719 288.945312 654.585938 289.203125 654.511719 289.457031 C 653.964844 291.554688 653.203125 293.570312 652.222656 295.503906 C 654.050781 295.75 655.886719 295.8125 657.726562 295.695312 C 658.960938 295.625 660.179688 295.460938 661.386719 295.203125 C 662.59375 294.945312 663.773438 294.59375 664.925781 294.148438 C 666.078125 293.703125 667.1875 293.175781 668.257812 292.558594 C 669.324219 291.941406 670.339844 291.246094 671.300781 290.46875 C 672.261719 289.695312 673.152344 288.847656 673.980469 287.933594 C 674.808594 287.015625 675.5625 286.042969 676.238281 285.011719 C 676.914062 283.976562 677.507812 282.898438 678.011719 281.773438 C 678.519531 280.648438 678.9375 279.492188 679.265625 278.300781 C 677.359375 278.296875 675.464844 278.15625 673.582031 277.875 C 673.066406 277.796875 672.585938 277.625 672.136719 277.355469 C 671.691406 277.085938 671.3125 276.742188 671.003906 276.324219 C 670.691406 275.902344 670.472656 275.441406 670.347656 274.933594 C 670.222656 274.429688 670.199219 273.917969 670.273438 273.402344 C 670.351562 272.886719 670.527344 272.402344 670.792969 271.957031 C 671.0625 271.511719 671.40625 271.132812 671.828125 270.820312 C 672.246094 270.511719 672.710938 270.292969 673.214844 270.167969 C 673.722656 270.042969 674.234375 270.015625 674.75 270.09375 C 676.488281 270.359375 678.234375 270.46875 679.992188 270.429688 L 680.070312 270.429688 C 680.507812 270.429688 680.933594 270.503906 681.347656 270.644531 C 686.125 270.359375 690.695312 269.234375 695.058594 267.261719 C 698.503906 265.703125 701.636719 263.660156 704.453125 261.132812 C 707.269531 258.605469 709.636719 255.714844 711.5625 252.457031 C 708.875 252.363281 706.238281 251.9375 703.660156 251.179688 C 701.078125 250.421875 698.632812 249.359375 696.316406 247.988281 C 696.09375 247.855469 695.886719 247.707031 695.691406 247.53125 C 695.5 247.359375 695.324219 247.171875 695.167969 246.964844 C 695.011719 246.757812 694.878906 246.535156 694.765625 246.300781 C 694.652344 246.070312 694.566406 245.828125 694.5 245.574219 C 694.4375 245.324219 694.398438 245.070312 694.382812 244.8125 C 694.371094 244.550781 694.378906 244.292969 694.417969 244.039062 C 694.453125 243.78125 694.515625 243.53125 694.601562 243.285156 C 694.6875 243.042969 694.796875 242.808594 694.929688 242.585938 C 695.0625 242.363281 695.21875 242.15625 695.390625 241.964844 C 695.5625 241.769531 695.753906 241.597656 695.964844 241.441406 C 696.171875 241.289062 696.390625 241.15625 696.625 241.042969 C 696.859375 240.933594 697.101562 240.847656 697.355469 240.785156 C 697.605469 240.71875 697.859375 240.683594 698.121094 240.671875 C 698.378906 240.65625 698.636719 240.671875 698.894531 240.710938 C 699.148438 240.746094 699.398438 240.8125 699.644531 240.898438 C 699.886719 240.988281 700.121094 241.097656 700.339844 241.230469 C 702.609375 242.585938 705.03125 243.542969 707.609375 244.101562 C 710.191406 244.664062 712.792969 244.800781 715.414062 244.507812 C 736.636719 238.492188 740.660156 208.460938 731.414062 197.671875 C 731.140625 197.496094 730.894531 197.292969 730.671875 197.058594 C 729.09375 195.355469 727.304688 193.914062 725.304688 192.730469 C 724.90625 192.449219 724.570312 192.101562 724.300781 191.691406 C 724.027344 191.285156 723.839844 190.839844 723.738281 190.359375 C 723.632812 189.882812 723.617188 189.398438 723.695312 188.914062 C 723.769531 188.429688 723.929688 187.976562 724.175781 187.550781 C 724.421875 187.128906 724.738281 186.761719 725.121094 186.457031 C 725.5 186.148438 725.925781 185.921875 726.394531 185.773438 C 726.863281 185.625 727.339844 185.566406 727.828125 185.597656 C 728.320312 185.628906 728.785156 185.75 729.230469 185.957031 C 731.875 187.527344 734.246094 189.4375 736.34375 191.691406 C 736.695312 192.074219 736.964844 192.511719 737.148438 193 C 746.089844 183.863281 749.445312 169.296875 743.078125 158.226562 C 742.890625 158.027344 742.722656 157.808594 742.582031 157.570312 Z M 679.953125 110.335938 C 680.039062 109.820312 680.21875 109.34375 680.496094 108.902344 C 680.773438 108.460938 681.121094 108.089844 681.546875 107.789062 C 681.96875 107.484375 682.4375 107.277344 682.945312 107.160156 C 683.449219 107.042969 683.960938 107.027344 684.472656 107.109375 C 685.433594 107.265625 686.398438 107.320312 687.371094 107.285156 C 688.34375 107.246094 689.300781 107.117188 690.246094 106.890625 C 691.191406 106.664062 692.105469 106.351562 692.992188 105.945312 C 693.875 105.539062 694.710938 105.050781 695.496094 104.480469 C 696.285156 103.914062 697.007812 103.269531 697.671875 102.558594 C 698.332031 101.847656 698.917969 101.078125 699.429688 100.25 C 699.9375 99.421875 700.363281 98.550781 700.703125 97.640625 C 701.039062 96.730469 701.289062 95.796875 701.441406 94.835938 C 701.539062 94.328125 701.726562 93.859375 702.003906 93.425781 C 702.285156 92.996094 702.636719 92.632812 703.058594 92.335938 C 703.480469 92.042969 703.945312 91.839844 704.445312 91.726562 C 704.949219 91.613281 705.453125 91.601562 705.960938 91.6875 C 706.46875 91.773438 706.941406 91.953125 707.378906 92.222656 C 707.816406 92.496094 708.1875 92.839844 708.492188 93.253906 C 708.792969 93.671875 709.003906 94.132812 709.128906 94.632812 C 709.25 95.132812 709.273438 95.636719 709.195312 96.144531 C 708.980469 97.460938 708.648438 98.742188 708.207031 100 C 707.765625 101.253906 707.21875 102.460938 706.566406 103.621094 C 705.910156 104.777344 705.160156 105.871094 704.316406 106.898438 C 703.472656 107.925781 702.542969 108.871094 701.53125 109.738281 C 700.519531 110.601562 699.441406 111.371094 698.292969 112.046875 C 697.148438 112.722656 695.949219 113.292969 694.703125 113.757812 C 693.457031 114.222656 692.179688 114.574219 690.871094 114.816406 C 689.5625 115.058594 688.242188 115.183594 686.914062 115.191406 C 685.667969 115.191406 684.429688 115.085938 683.203125 114.878906 C 682.945312 114.835938 682.695312 114.769531 682.453125 114.679688 C 682.210938 114.589844 681.976562 114.476562 681.757812 114.339844 C 681.535156 114.199219 681.332031 114.042969 681.140625 113.867188 C 680.953125 113.6875 680.78125 113.496094 680.632812 113.285156 C 680.480469 113.074219 680.351562 112.847656 680.246094 112.613281 C 680.136719 112.375 680.054688 112.128906 679.996094 111.878906 C 679.9375 111.625 679.90625 111.367188 679.898438 111.109375 C 679.890625 110.847656 679.910156 110.589844 679.953125 110.335938 Z M 652.3125 257.734375 C 652.269531 258.253906 652.125 258.746094 651.886719 259.207031 C 651.644531 259.671875 651.324219 260.070312 650.925781 260.40625 C 650.527344 260.742188 650.078125 260.988281 649.582031 261.144531 C 649.082031 261.300781 648.574219 261.359375 648.054688 261.3125 C 647.066406 261.226562 646.082031 261.242188 645.101562 261.351562 C 644.117188 261.460938 643.152344 261.664062 642.210938 261.960938 C 641.265625 262.261719 640.363281 262.648438 639.496094 263.125 C 638.628906 263.605469 637.816406 264.160156 637.058594 264.796875 C 636.300781 265.4375 635.613281 266.140625 634.996094 266.914062 C 634.378906 267.6875 633.839844 268.511719 633.386719 269.390625 C 632.929688 270.269531 632.566406 271.183594 632.289062 272.132812 C 632.011719 273.082031 631.832031 274.050781 631.746094 275.035156 C 631.707031 275.527344 631.574219 275.996094 631.359375 276.4375 C 631.140625 276.882812 630.847656 277.269531 630.484375 277.601562 C 630.121094 277.9375 629.707031 278.191406 629.246094 278.371094 C 628.785156 278.546875 628.308594 278.636719 627.816406 278.632812 L 627.476562 278.632812 C 626.957031 278.589844 626.464844 278.445312 626.003906 278.207031 C 625.539062 277.964844 625.140625 277.648438 624.804688 277.25 C 624.46875 276.851562 624.222656 276.402344 624.066406 275.90625 C 623.910156 275.410156 623.851562 274.898438 623.894531 274.382812 C 623.960938 273.632812 624.0625 272.890625 624.199219 272.152344 C 624.335938 271.414062 624.511719 270.683594 624.71875 269.960938 C 624.929688 269.238281 625.171875 268.53125 625.449219 267.832031 C 625.730469 267.136719 626.042969 266.453125 626.386719 265.785156 C 626.734375 265.121094 627.113281 264.472656 627.519531 263.84375 C 627.929688 263.210938 628.371094 262.605469 628.839844 262.019531 C 629.308594 261.429688 629.804688 260.871094 630.328125 260.332031 C 630.855469 259.792969 631.402344 259.285156 631.976562 258.800781 C 632.554688 258.316406 633.148438 257.863281 633.769531 257.4375 C 634.386719 257.011719 635.027344 256.617188 635.683594 256.253906 C 636.34375 255.894531 637.015625 255.5625 637.707031 255.269531 C 638.398438 254.972656 639.101562 254.710938 639.816406 254.484375 C 640.53125 254.257812 641.257812 254.066406 641.992188 253.910156 C 642.726562 253.753906 643.46875 253.632812 644.214844 253.550781 C 644.960938 253.46875 645.710938 253.421875 646.460938 253.410156 C 647.210938 253.402344 647.960938 253.429688 648.710938 253.492188 C 649.230469 253.535156 649.722656 253.675781 650.1875 253.914062 C 650.652344 254.152344 651.054688 254.46875 651.390625 254.867188 C 651.730469 255.265625 651.976562 255.710938 652.136719 256.207031 C 652.296875 256.707031 652.355469 257.214844 652.3125 257.734375 Z M 640.007812 205.382812 C 638.902344 203.289062 637.445312 201.488281 635.628906 199.976562 C 633.8125 198.464844 631.777344 197.355469 629.519531 196.652344 C 629.03125 196.488281 628.589844 196.234375 628.199219 195.898438 C 627.808594 195.558594 627.496094 195.160156 627.265625 194.699219 C 627.03125 194.238281 626.894531 193.75 626.851562 193.238281 C 626.8125 192.722656 626.871094 192.21875 627.027344 191.726562 C 627.183594 191.234375 627.429688 190.792969 627.757812 190.394531 C 628.089844 190 628.484375 189.683594 628.941406 189.441406 C 629.398438 189.203125 629.886719 189.058594 630.398438 189.007812 C 630.914062 188.960938 631.417969 189.011719 631.910156 189.160156 C 633.519531 189.660156 635.0625 190.316406 636.539062 191.121094 C 638.019531 191.925781 639.402344 192.867188 640.695312 193.945312 C 641.988281 195.023438 643.164062 196.214844 644.222656 197.523438 C 645.28125 198.835938 646.203125 200.234375 646.984375 201.722656 C 647.769531 203.210938 648.398438 204.757812 648.875 206.371094 C 649.347656 207.984375 649.660156 209.628906 649.804688 211.300781 C 649.949219 212.976562 649.925781 214.648438 649.738281 216.316406 C 649.546875 217.988281 649.195312 219.621094 648.675781 221.222656 C 648.550781 221.621094 648.363281 221.988281 648.121094 222.328125 C 647.878906 222.664062 647.585938 222.957031 647.25 223.203125 C 646.914062 223.449219 646.546875 223.636719 646.148438 223.769531 C 645.753906 223.898438 645.34375 223.960938 644.929688 223.960938 C 644.519531 223.960938 644.121094 223.898438 643.734375 223.769531 C 643.238281 223.613281 642.792969 223.363281 642.394531 223.027344 C 641.996094 222.691406 641.675781 222.292969 641.4375 221.828125 C 641.199219 221.363281 641.058594 220.875 641.011719 220.355469 C 640.96875 219.835938 641.027344 219.328125 641.1875 218.828125 C 641.902344 216.601562 642.160156 214.320312 641.953125 211.984375 C 641.75 209.652344 641.101562 207.453125 640.007812 205.382812 Z M 646.828125 145.085938 C 644.984375 145.480469 643.121094 145.675781 641.238281 145.679688 C 638.789062 145.703125 636.398438 145.347656 634.066406 144.613281 C 631.730469 143.878906 629.566406 142.800781 627.574219 141.382812 C 627.355469 141.234375 627.152344 141.066406 626.96875 140.878906 C 626.785156 140.691406 626.621094 140.488281 626.476562 140.269531 C 626.332031 140.046875 626.210938 139.816406 626.113281 139.570312 C 626.019531 139.324219 625.945312 139.074219 625.898438 138.8125 C 625.851562 138.554688 625.832031 138.292969 625.839844 138.03125 C 625.84375 137.769531 625.878906 137.507812 625.933594 137.25 C 625.992188 136.996094 626.078125 136.746094 626.183594 136.507812 C 626.292969 136.265625 626.421875 136.039062 626.578125 135.824219 C 626.730469 135.613281 626.902344 135.414062 627.097656 135.238281 C 627.289062 135.058594 627.5 134.898438 627.722656 134.761719 C 627.949219 134.625 628.183594 134.511719 628.433594 134.421875 C 628.679688 134.332031 628.933594 134.269531 629.195312 134.230469 C 629.453125 134.191406 629.714844 134.179688 629.980469 134.195312 C 630.242188 134.207031 630.5 134.246094 630.753906 134.3125 C 631.011719 134.378906 631.253906 134.46875 631.492188 134.585938 C 631.730469 134.699219 631.953125 134.839844 632.160156 135 C 635.734375 137.5625 640.367188 138.414062 645.203125 137.390625 C 648.199219 136.753906 650.910156 135.5 653.335938 133.628906 C 651.007812 132.46875 648.832031 131.074219 646.800781 129.449219 C 644.773438 127.820312 642.9375 126 641.300781 123.980469 C 639.660156 121.960938 638.253906 119.792969 637.078125 117.472656 C 635.902344 115.152344 634.988281 112.734375 634.332031 110.21875 C 634.222656 109.722656 634.210938 109.222656 634.296875 108.71875 C 634.378906 108.21875 634.554688 107.75 634.824219 107.320312 C 635.089844 106.886719 635.425781 106.519531 635.835938 106.214844 C 636.246094 105.914062 636.695312 105.699219 637.1875 105.570312 C 637.679688 105.445312 638.179688 105.414062 638.683594 105.480469 C 639.1875 105.546875 639.660156 105.703125 640.105469 105.953125 C 640.546875 106.203125 640.925781 106.527344 641.246094 106.925781 C 641.5625 107.320312 641.792969 107.765625 641.9375 108.25 C 642.175781 109.160156 642.460938 110.050781 642.785156 110.933594 C 643.113281 111.8125 643.480469 112.675781 643.890625 113.519531 C 644.300781 114.363281 644.753906 115.183594 645.242188 115.984375 C 645.734375 116.78125 646.265625 117.554688 646.832031 118.304688 C 647.398438 119.050781 648 119.769531 648.636719 120.457031 C 649.277344 121.144531 649.945312 121.800781 650.648438 122.421875 C 651.351562 123.046875 652.082031 123.632812 652.839844 124.183594 C 653.601562 124.734375 654.382812 125.246094 655.195312 125.722656 C 656.003906 126.195312 656.835938 126.628906 657.6875 127.019531 C 658.539062 127.414062 659.410156 127.761719 660.296875 128.070312 C 661.183594 128.375 662.082031 128.640625 662.996094 128.859375 C 663.90625 129.078125 664.828125 129.25 665.757812 129.378906 C 666.6875 129.507812 667.621094 129.589844 668.558594 129.625 C 669.496094 129.664062 670.433594 129.652344 671.371094 129.597656 C 672.308594 129.542969 673.238281 129.441406 674.164062 129.292969 C 675.09375 129.148438 676.011719 128.957031 676.917969 128.71875 C 677.171875 128.644531 677.429688 128.59375 677.691406 128.570312 C 677.957031 128.546875 678.21875 128.550781 678.484375 128.578125 C 678.746094 128.609375 679.003906 128.664062 679.253906 128.746094 C 679.507812 128.824219 679.746094 128.929688 679.976562 129.0625 C 680.207031 129.191406 680.421875 129.34375 680.621094 129.515625 C 680.824219 129.691406 681.003906 129.882812 681.164062 130.089844 C 681.324219 130.300781 681.464844 130.523438 681.578125 130.761719 C 681.695312 131 681.785156 131.246094 681.851562 131.503906 C 681.917969 131.757812 681.957031 132.019531 681.972656 132.28125 C 681.988281 132.546875 681.972656 132.808594 681.933594 133.070312 C 681.894531 133.332031 681.828125 133.589844 681.738281 133.835938 C 681.648438 134.085938 681.535156 134.320312 681.394531 134.546875 C 681.257812 134.773438 681.097656 134.980469 680.914062 135.175781 C 680.734375 135.367188 680.535156 135.539062 680.320312 135.695312 C 680.105469 135.847656 679.875 135.976562 679.632812 136.082031 C 679.394531 136.191406 679.140625 136.273438 678.882812 136.328125 C 675.855469 137.121094 672.773438 137.519531 669.644531 137.519531 C 666.941406 137.519531 664.269531 137.21875 661.632812 136.617188 C 659.671875 138.769531 657.425781 140.570312 654.898438 142.015625 C 652.371094 143.464844 649.679688 144.484375 646.828125 145.085938 Z M 719.320312 173.535156 C 717.574219 175.613281 715.640625 177.5 713.523438 179.195312 C 711.402344 180.890625 709.136719 182.363281 706.722656 183.605469 C 704.3125 184.851562 701.800781 185.851562 699.191406 186.597656 C 696.582031 187.347656 693.925781 187.832031 691.21875 188.050781 C 690.039062 188.152344 688.867188 188.195312 687.691406 188.195312 C 686.691406 188.195312 685.6875 188.152344 684.699219 188.078125 C 685.164062 189.859375 685.867188 191.539062 686.808594 193.117188 C 687.746094 194.699219 688.886719 196.121094 690.230469 197.378906 C 691.191406 198.289062 692.230469 199.097656 693.351562 199.804688 C 694.472656 200.507812 695.652344 201.097656 696.890625 201.570312 C 698.125 202.042969 699.398438 202.390625 700.703125 202.613281 C 702.007812 202.835938 703.324219 202.929688 704.648438 202.890625 C 705.167969 202.878906 705.671875 202.96875 706.160156 203.15625 C 706.644531 203.347656 707.078125 203.621094 707.453125 203.984375 C 707.832031 204.34375 708.125 204.761719 708.335938 205.242188 C 708.542969 205.71875 708.65625 206.21875 708.664062 206.742188 C 708.675781 207.261719 708.585938 207.765625 708.398438 208.253906 C 708.207031 208.738281 707.933594 209.171875 707.570312 209.546875 C 707.210938 209.921875 706.789062 210.214844 706.3125 210.425781 C 705.832031 210.636719 705.332031 210.746094 704.8125 210.753906 L 704.203125 210.753906 C 702.417969 210.761719 700.652344 210.601562 698.898438 210.269531 C 697.148438 209.9375 695.441406 209.445312 693.785156 208.789062 C 692.125 208.132812 690.542969 207.324219 689.039062 206.367188 C 687.535156 205.410156 686.136719 204.320312 684.839844 203.09375 C 682.527344 200.917969 680.648438 198.414062 679.203125 195.582031 C 677.757812 192.753906 676.832031 189.761719 676.425781 186.609375 C 670.71875 184.988281 665.601562 182.257812 661.070312 178.425781 C 660.867188 178.257812 660.6875 178.074219 660.519531 177.875 C 660.355469 177.671875 660.210938 177.457031 660.089844 177.226562 C 659.96875 176.996094 659.871094 176.753906 659.796875 176.503906 C 659.722656 176.253906 659.671875 176 659.648438 175.742188 C 659.625 175.480469 659.628906 175.222656 659.65625 174.960938 C 659.683594 174.703125 659.738281 174.449219 659.816406 174.203125 C 659.894531 173.953125 659.996094 173.714844 660.121094 173.484375 C 660.246094 173.257812 660.394531 173.042969 660.5625 172.84375 C 660.730469 172.644531 660.917969 172.464844 661.121094 172.304688 C 661.328125 172.140625 661.542969 172 661.777344 171.882812 C 662.007812 171.765625 662.25 171.667969 662.5 171.597656 C 662.753906 171.527344 663.007812 171.484375 663.269531 171.464844 C 663.527344 171.445312 663.785156 171.449219 664.046875 171.480469 C 664.304688 171.515625 664.558594 171.570312 664.804688 171.652344 C 665.050781 171.734375 665.289062 171.839844 665.515625 171.96875 C 665.742188 172.097656 665.953125 172.25 666.148438 172.421875 C 668.242188 174.199219 670.519531 175.695312 672.984375 176.910156 C 675.445312 178.121094 678.019531 179.015625 680.707031 179.589844 L 680.976562 179.644531 C 684.140625 180.292969 687.335938 180.484375 690.554688 180.214844 C 692.75 180.035156 694.902344 179.644531 697.015625 179.039062 C 699.128906 178.433594 701.164062 177.628906 703.117188 176.621094 C 705.074219 175.613281 706.910156 174.421875 708.625 173.046875 C 710.34375 171.675781 711.910156 170.144531 713.324219 168.460938 C 713.664062 168.066406 714.0625 167.75 714.523438 167.511719 C 714.988281 167.277344 715.476562 167.136719 715.996094 167.09375 C 716.515625 167.050781 717.019531 167.109375 717.515625 167.265625 C 718.011719 167.425781 718.457031 167.671875 718.855469 168.007812 C 719.25 168.34375 719.570312 168.742188 719.808594 169.203125 C 720.046875 169.664062 720.191406 170.15625 720.234375 170.671875 C 720.28125 171.191406 720.226562 171.699219 720.070312 172.191406 C 719.914062 172.6875 719.667969 173.136719 719.335938 173.535156 Z M 719.320312 173.535156 " fill-opacity="1" fill-rule="nonzero"/></g><g fill="#4a1085" fill-opacity="1"><g transform="translate(581.506793, 443.150605)"><g><path d="M 123.984375 -57.90625 C 123.984375 -38.914062 120.175781 -24.160156 112.5625 -13.640625 C 104.945312 -3.128906 94.054688 2.125 79.890625 2.125 C 71.742188 2.125 64.695312 0.351562 58.75 -3.1875 C 52.800781 -6.726562 48.234375 -11.828125 45.046875 -18.484375 L 44.828125 -18.484375 C 44.828125 -16.003906 44.664062 -12.601562 44.34375 -8.28125 C 44.03125 -3.96875 43.695312 -1.207031 43.34375 0 L 14.34375 0 C 14.90625 -6.582031 15.1875 -15.328125 15.1875 -26.234375 L 15.1875 -157.65625 L 45.046875 -157.65625 L 45.046875 -113.671875 L 44.625 -94.984375 L 45.046875 -94.984375 C 51.773438 -109.710938 64.023438 -117.078125 81.796875 -117.078125 C 95.398438 -117.078125 105.832031 -111.921875 113.09375 -101.609375 C 120.351562 -91.304688 123.984375 -76.738281 123.984375 -57.90625 Z M 92.859375 -57.90625 C 92.859375 -70.9375 90.941406 -80.601562 87.109375 -86.90625 C 83.285156 -93.207031 77.375 -96.359375 69.375 -96.359375 C 61.300781 -96.359375 55.15625 -92.972656 50.9375 -86.203125 C 46.726562 -79.441406 44.625 -69.6875 44.625 -56.9375 C 44.625 -44.757812 46.691406 -35.269531 50.828125 -28.46875 C 54.972656 -21.664062 61.082031 -18.265625 69.15625 -18.265625 C 84.957031 -18.265625 92.859375 -31.476562 92.859375 -57.90625 Z M 92.859375 -57.90625 "/></g></g><g transform="translate(714.414894, 443.150605)"><g><path d="M 124.40625 -57.578125 C 124.40625 -38.953125 119.234375 -24.34375 108.890625 -13.75 C 98.554688 -3.164062 84.25 2.125 65.96875 2.125 C 48.050781 2.125 33.992188 -3.1875 23.796875 -13.8125 C 13.597656 -24.4375 8.5 -39.023438 8.5 -57.578125 C 8.5 -76.066406 13.597656 -90.601562 23.796875 -101.1875 C 33.992188 -111.78125 48.265625 -117.078125 66.609375 -117.078125 C 85.378906 -117.078125 99.703125 -111.957031 109.578125 -101.71875 C 119.460938 -91.488281 124.40625 -76.773438 124.40625 -57.578125 Z M 93.171875 -57.578125 C 93.171875 -71.242188 90.9375 -81.160156 86.46875 -87.328125 C 82.007812 -93.492188 75.53125 -96.578125 67.03125 -96.578125 C 48.90625 -96.578125 39.84375 -83.578125 39.84375 -57.578125 C 39.84375 -44.765625 42.054688 -35.007812 46.484375 -28.3125 C 50.910156 -21.613281 57.300781 -18.265625 65.65625 -18.265625 C 84 -18.265625 93.171875 -31.367188 93.171875 -57.578125 Z M 93.171875 -57.578125 "/></g></g><g transform="translate(847.322994, 443.150605)"><g><path d="M 89.671875 0 C 89.378906 -1.0625 89.039062 -3.734375 88.65625 -8.015625 C 88.269531 -12.304688 88.078125 -15.867188 88.078125 -18.703125 L 87.640625 -18.703125 C 81.203125 -4.816406 68.953125 2.125 50.890625 2.125 C 37.503906 2.125 27.160156 -3.097656 19.859375 -13.546875 C 12.566406 -23.992188 8.921875 -38.601562 8.921875 -57.375 C 8.921875 -76.425781 12.765625 -91.140625 20.453125 -101.515625 C 28.140625 -111.890625 39.03125 -117.078125 53.125 -117.078125 C 61.269531 -117.078125 68.296875 -115.375 74.203125 -111.96875 C 80.117188 -108.570312 84.671875 -103.507812 87.859375 -96.78125 L 88.078125 -96.78125 L 87.859375 -115.6875 L 87.859375 -157.65625 L 117.71875 -157.65625 L 117.71875 -25.078125 C 117.71875 -17.992188 118 -9.632812 118.5625 0 Z M 88.28125 -58.109375 C 88.28125 -70.503906 86.207031 -80.046875 82.0625 -86.734375 C 77.925781 -93.429688 71.820312 -96.78125 63.75 -96.78125 C 55.738281 -96.78125 49.785156 -93.539062 45.890625 -87.0625 C 41.992188 -80.582031 40.046875 -70.6875 40.046875 -57.375 C 40.046875 -31.300781 47.875 -18.265625 63.53125 -18.265625 C 71.394531 -18.265625 77.484375 -21.71875 81.796875 -28.625 C 86.117188 -35.53125 88.28125 -45.359375 88.28125 -58.109375 Z M 88.28125 -58.109375 "/></g></g><g transform="translate(980.231095, 443.150605)"><g><path d="M 30.0625 45.15625 C 22.90625 45.15625 16.640625 44.691406 11.265625 43.765625 L 11.265625 22.515625 C 15.015625 23.085938 18.445312 23.375 21.5625 23.375 C 25.8125 23.375 29.332031 22.695312 32.125 21.34375 C 34.925781 20 37.441406 17.769531 39.671875 14.65625 C 41.910156 11.539062 44.410156 6.265625 47.171875 -1.171875 L 1.703125 -114.953125 L 33.25 -114.953125 L 51.3125 -61.09375 C 54.144531 -53.363281 57.722656 -41.535156 62.046875 -25.609375 L 64.703125 -35.703125 L 71.609375 -60.65625 L 88.609375 -114.953125 L 119.84375 -114.953125 L 74.375 6.0625 C 68.28125 20.789062 61.957031 30.988281 55.40625 36.65625 C 48.851562 42.320312 40.40625 45.15625 30.0625 45.15625 Z M 30.0625 45.15625 "/></g></g></g><g fill="#00606e" fill-opacity="1"><g transform="translate(99.747298, 443.150605)"><g><path d="M 138.859375 0 L 138.859375 -90.734375 C 138.859375 -92.785156 138.875 -94.835938 138.90625 -96.890625 C 138.945312 -98.941406 139.285156 -107.757812 139.921875 -123.34375 C 134.890625 -104.289062 131.171875 -91.007812 128.765625 -83.5 L 101.78125 0 L 79.46875 0 L 52.484375 -83.5 L 41.109375 -123.34375 C 41.960938 -106.914062 42.390625 -96.046875 42.390625 -90.734375 L 42.390625 0 L 14.5625 0 L 14.5625 -149.6875 L 56.515625 -149.6875 L 83.296875 -65.96875 L 85.625 -57.90625 L 90.734375 -37.828125 L 97.421875 -61.828125 L 124.9375 -149.6875 L 166.6875 -149.6875 L 166.6875 0 Z M 138.859375 0 "/></g></g><g transform="translate(280.995276, 443.150605)"><g><path d="M 15.1875 -135.671875 L 15.1875 -157.65625 L 45.046875 -157.65625 L 45.046875 -135.671875 Z M 15.1875 0 L 15.1875 -114.953125 L 45.046875 -114.953125 L 45.046875 0 Z M 15.1875 0 "/></g></g><g transform="translate(341.446682, 443.150605)"><g><path d="M 89.671875 0 L 89.671875 -64.484375 C 89.671875 -84.671875 82.832031 -94.765625 69.15625 -94.765625 C 61.9375 -94.765625 56.113281 -91.664062 51.6875 -85.46875 C 47.257812 -79.269531 45.046875 -71.320312 45.046875 -61.625 L 45.046875 0 L 15.1875 0 L 15.1875 -89.234375 C 15.1875 -95.398438 15.097656 -100.445312 14.921875 -104.375 C 14.742188 -108.3125 14.550781 -111.835938 14.34375 -114.953125 L 42.8125 -114.953125 C 43.03125 -113.609375 43.316406 -110.015625 43.671875 -104.171875 C 44.023438 -98.328125 44.203125 -94.304688 44.203125 -92.109375 L 44.625 -92.109375 C 48.65625 -100.890625 53.71875 -107.265625 59.8125 -111.234375 C 65.90625 -115.203125 73.164062 -117.1875 81.59375 -117.1875 C 93.769531 -117.1875 103.113281 -113.429688 109.625 -105.921875 C 116.144531 -98.410156 119.40625 -87.429688 119.40625 -72.984375 L 119.40625 0 Z M 89.671875 0 "/></g></g><g transform="translate(474.354783, 443.150605)"><g><path d="M 89.671875 0 C 89.378906 -1.0625 89.039062 -3.734375 88.65625 -8.015625 C 88.269531 -12.304688 88.078125 -15.867188 88.078125 -18.703125 L 87.640625 -18.703125 C 81.203125 -4.816406 68.953125 2.125 50.890625 2.125 C 37.503906 2.125 27.160156 -3.097656 19.859375 -13.546875 C 12.566406 -23.992188 8.921875 -38.601562 8.921875 -57.375 C 8.921875 -76.425781 12.765625 -91.140625 20.453125 -101.515625 C 28.140625 -111.890625 39.03125 -117.078125 53.125 -117.078125 C 61.269531 -117.078125 68.296875 -115.375 74.203125 -111.96875 C 80.117188 -108.570312 84.671875 -103.507812 87.859375 -96.78125 L 88.078125 -96.78125 L 87.859375 -115.6875 L 87.859375 -157.65625 L 117.71875 -157.65625 L 117.71875 -25.078125 C 117.71875 -17.992188 118 -9.632812 118.5625 0 Z M 88.28125 -58.109375 C 88.28125 -70.503906 86.207031 -80.046875 82.0625 -86.734375 C 77.925781 -93.429688 71.820312 -96.78125 63.75 -96.78125 C 55.738281 -96.78125 49.785156 -93.539062 45.890625 -87.0625 C 41.992188 -80.582031 40.046875 -70.6875 40.046875 -57.375 C 40.046875 -31.300781 47.875 -18.265625 63.53125 -18.265625 C 71.394531 -18.265625 77.484375 -21.71875 81.796875 -28.625 C 86.117188 -35.53125 88.28125 -45.359375 88.28125 -58.109375 Z M 88.28125 -58.109375 "/></g></g></g><g clip-path="url(#0aaf712174)"><path fill="#00606e" d="M 448.660156 156.070312 C 449.074219 155.394531 449.519531 154.742188 449.996094 154.109375 C 450.472656 153.476562 450.980469 152.871094 451.515625 152.289062 C 452.054688 151.703125 452.617188 151.148438 453.210938 150.621094 C 453.800781 150.097656 454.417969 149.597656 455.054688 149.132812 C 455.695312 148.664062 456.359375 148.230469 457.039062 147.828125 C 457.722656 147.425781 458.421875 147.058594 459.140625 146.726562 C 459.859375 146.390625 460.59375 146.09375 461.339844 145.832031 C 462.089844 145.570312 462.847656 145.347656 463.617188 145.160156 C 464.386719 144.972656 465.164062 144.824219 465.949219 144.710938 C 466.734375 144.601562 467.519531 144.527344 468.3125 144.496094 C 469.101562 144.460938 469.894531 144.464844 470.683594 144.511719 C 471.476562 144.554688 472.261719 144.636719 473.046875 144.757812 C 473.828125 144.878906 474.605469 145.035156 475.371094 145.234375 C 476.140625 145.429688 476.894531 145.664062 477.640625 145.933594 C 478.382812 146.207031 479.113281 146.511719 479.828125 146.855469 C 480.542969 147.195312 481.238281 147.574219 481.914062 147.984375 C 482.359375 148.253906 482.839844 148.429688 483.355469 148.511719 C 483.871094 148.589844 484.382812 148.570312 484.890625 148.445312 C 485.394531 148.324219 485.859375 148.105469 486.28125 147.800781 C 486.703125 147.492188 487.046875 147.113281 487.320312 146.667969 C 487.589844 146.222656 487.765625 145.742188 487.84375 145.230469 C 487.925781 144.714844 487.902344 144.203125 487.78125 143.695312 C 487.65625 143.1875 487.441406 142.726562 487.132812 142.304688 C 486.828125 141.882812 486.449219 141.535156 486.003906 141.265625 C 485.214844 140.785156 484.40625 140.339844 483.574219 139.929688 C 482.746094 139.519531 481.902344 139.144531 481.042969 138.808594 C 480.179688 138.472656 479.304688 138.171875 478.417969 137.910156 C 477.53125 137.648438 476.636719 137.425781 475.730469 137.242188 C 474.824219 137.054688 473.910156 136.910156 472.992188 136.804688 C 472.074219 136.699219 471.152344 136.636719 470.226562 136.609375 C 469.304688 136.582031 468.378906 136.597656 467.457031 136.652344 C 466.53125 136.703125 465.613281 136.796875 464.699219 136.933594 C 463.78125 137.066406 462.875 137.238281 461.976562 137.449219 C 461.074219 137.660156 460.1875 137.910156 459.308594 138.199219 C 458.429688 138.488281 457.5625 138.8125 456.714844 139.175781 C 455.863281 139.539062 455.03125 139.941406 454.214844 140.375 C 453.398438 140.808594 452.601562 141.28125 451.828125 141.785156 C 451.050781 142.289062 450.300781 142.824219 449.570312 143.394531 C 448.839844 143.960938 448.136719 144.5625 447.460938 145.191406 C 446.785156 145.820312 446.132812 146.480469 445.515625 147.164062 C 444.003906 139.925781 443.667969 132.628906 444.503906 125.28125 C 445.023438 121.046875 446.121094 116.964844 447.792969 113.039062 C 449.460938 109.113281 451.644531 105.496094 454.335938 102.183594 C 455.097656 106.230469 456.582031 109.996094 458.792969 113.46875 C 459.074219 113.910156 459.429688 114.277344 459.855469 114.574219 C 460.285156 114.871094 460.753906 115.078125 461.261719 115.1875 C 461.769531 115.300781 462.28125 115.308594 462.796875 115.21875 C 463.308594 115.125 463.785156 114.941406 464.222656 114.660156 C 464.664062 114.378906 465.03125 114.023438 465.328125 113.597656 C 465.628906 113.167969 465.832031 112.699219 465.945312 112.191406 C 466.054688 111.683594 466.066406 111.171875 465.976562 110.660156 C 465.882812 110.144531 465.699219 109.667969 465.417969 109.230469 C 464.042969 107.0625 463.035156 104.738281 462.398438 102.253906 C 461.757812 99.769531 461.515625 97.246094 461.675781 94.6875 C 461.691406 94.5 461.691406 94.3125 461.675781 94.125 C 461.765625 93.171875 461.902344 92.226562 462.089844 91.289062 C 462.273438 90.351562 462.507812 89.421875 462.789062 88.507812 C 463.066406 87.59375 463.394531 86.695312 463.765625 85.816406 C 464.136719 84.933594 464.554688 84.074219 465.011719 83.238281 C 465.472656 82.398438 465.972656 81.585938 466.515625 80.796875 C 467.058594 80.011719 467.640625 79.253906 468.261719 78.523438 C 468.882812 77.796875 469.535156 77.101562 470.226562 76.441406 C 470.917969 75.78125 471.640625 75.15625 472.398438 74.570312 C 473.152344 73.980469 473.933594 73.433594 474.746094 72.929688 C 475.554688 72.421875 476.390625 71.957031 477.25 71.535156 C 478.105469 71.113281 478.984375 70.734375 479.878906 70.402344 C 480.777344 70.070312 481.6875 69.785156 482.613281 69.542969 C 483.539062 69.304688 484.476562 69.113281 485.421875 68.96875 C 486.367188 68.828125 487.316406 68.730469 488.273438 68.683594 C 489.226562 68.636719 490.183594 68.640625 491.136719 68.691406 C 492.09375 68.742188 493.042969 68.839844 493.988281 68.988281 L 494.183594 69.035156 C 496.402344 69.378906 498.53125 70.023438 500.570312 70.964844 C 502.609375 71.90625 504.480469 73.109375 506.183594 74.574219 C 506.378906 74.746094 506.589844 74.898438 506.816406 75.03125 C 507.039062 75.160156 507.277344 75.269531 507.523438 75.351562 C 507.769531 75.4375 508.023438 75.496094 508.28125 75.53125 C 508.539062 75.566406 508.800781 75.574219 509.058594 75.554688 C 509.320312 75.539062 509.574219 75.496094 509.828125 75.425781 C 510.078125 75.359375 510.320312 75.265625 510.554688 75.148438 C 510.789062 75.03125 511.007812 74.894531 511.214844 74.730469 C 511.417969 74.570312 511.605469 74.394531 511.777344 74.195312 C 511.945312 73.996094 512.097656 73.785156 512.222656 73.558594 C 512.351562 73.328125 512.457031 73.089844 512.535156 72.84375 C 512.617188 72.59375 512.671875 72.339844 512.699219 72.082031 C 512.730469 71.824219 512.734375 71.5625 512.714844 71.304688 C 512.691406 71.042969 512.644531 70.789062 512.570312 70.539062 C 512.5 70.289062 512.402344 70.046875 512.28125 69.816406 C 512.160156 69.582031 512.019531 69.367188 511.855469 69.164062 C 511.691406 68.960938 511.511719 68.777344 511.308594 68.609375 C 508.828125 66.472656 506.082031 64.761719 503.070312 63.46875 C 506.722656 61.597656 510.550781 60.203125 514.554688 59.289062 C 524.621094 57.25 537.113281 58.449219 546.667969 65.226562 C 542.835938 66.730469 539.445312 68.917969 536.488281 71.78125 C 536.132812 72.148438 535.859375 72.566406 535.664062 73.039062 C 535.472656 73.511719 535.375 74.003906 535.375 74.515625 C 535.371094 75.027344 535.46875 75.519531 535.65625 75.992188 C 535.847656 76.46875 536.121094 76.890625 536.476562 77.257812 C 536.832031 77.625 537.242188 77.910156 537.710938 78.121094 C 538.175781 78.328125 538.664062 78.4375 539.175781 78.457031 C 539.6875 78.472656 540.183594 78.394531 540.660156 78.214844 C 541.140625 78.039062 541.570312 77.78125 541.949219 77.4375 C 543.523438 75.910156 545.277344 74.636719 547.21875 73.613281 C 549.15625 72.59375 551.199219 71.863281 553.347656 71.425781 L 553.535156 71.382812 C 554.734375 71.148438 555.945312 71 557.164062 70.929688 C 558.382812 70.863281 559.601562 70.878906 560.820312 70.976562 C 562.035156 71.074219 563.242188 71.253906 564.433594 71.515625 C 565.628906 71.777344 566.796875 72.117188 567.945312 72.539062 C 569.089844 72.960938 570.203125 73.457031 571.28125 74.027344 C 572.363281 74.597656 573.398438 75.242188 574.390625 75.953125 C 575.382812 76.667969 576.320312 77.441406 577.207031 78.285156 C 578.09375 79.125 578.917969 80.019531 579.683594 80.972656 C 580.445312 81.925781 581.144531 82.925781 581.773438 83.972656 C 582.402344 85.019531 582.957031 86.105469 583.4375 87.226562 C 583.917969 88.347656 584.320312 89.5 584.644531 90.675781 C 584.96875 91.855469 585.214844 93.046875 585.375 94.257812 C 585.539062 95.46875 585.621094 96.683594 585.617188 97.90625 C 585.613281 99.125 585.527344 100.34375 585.359375 101.550781 C 585.191406 102.761719 584.945312 103.953125 584.613281 105.128906 C 584.285156 106.304688 583.875 107.453125 583.390625 108.574219 C 583.273438 108.75 583.171875 108.933594 583.082031 109.125 C 581.871094 111.816406 580.199219 114.183594 578.074219 116.230469 C 577.699219 116.59375 577.40625 117.011719 577.199219 117.492188 C 576.992188 117.96875 576.882812 118.46875 576.875 118.992188 C 576.867188 119.511719 576.957031 120.015625 577.148438 120.5 C 577.339844 120.984375 577.617188 121.414062 577.980469 121.789062 C 578.339844 122.164062 578.761719 122.457031 579.242188 122.664062 C 579.71875 122.871094 580.21875 122.980469 580.738281 122.988281 C 581.261719 123 581.765625 122.90625 582.25 122.714844 C 582.734375 122.523438 583.164062 122.25 583.539062 121.886719 C 585.65625 119.847656 587.445312 117.550781 588.902344 114.996094 C 590.433594 117.015625 591.683594 119.199219 592.652344 121.542969 C 593.617188 123.886719 594.269531 126.3125 594.609375 128.828125 C 596.164062 138.703125 594.414062 148.140625 588.808594 156.300781 C 588.566406 156.078125 588.296875 155.894531 588.003906 155.742188 C 583.425781 153.414062 578.566406 152.25 573.425781 152.25 C 572.90625 152.25 572.40625 152.351562 571.921875 152.550781 C 571.441406 152.75 571.015625 153.035156 570.648438 153.402344 C 570.277344 153.769531 569.996094 154.195312 569.792969 154.679688 C 569.59375 155.160156 569.496094 155.660156 569.496094 156.183594 C 569.496094 156.703125 569.59375 157.207031 569.792969 157.6875 C 569.996094 158.167969 570.277344 158.59375 570.648438 158.964844 C 571.015625 159.332031 571.441406 159.617188 571.921875 159.816406 C 572.40625 160.015625 572.90625 160.113281 573.425781 160.113281 C 577.007812 160.105469 580.417969 160.863281 583.660156 162.390625 C 584.769531 162.957031 585.839844 163.597656 586.871094 164.308594 C 587.898438 165.019531 588.871094 165.796875 589.796875 166.640625 C 590.71875 167.480469 591.585938 168.378906 592.386719 169.335938 C 593.191406 170.292969 593.929688 171.300781 594.597656 172.355469 C 595.269531 173.410156 595.863281 174.507812 596.386719 175.640625 C 596.910156 176.777344 597.355469 177.941406 597.726562 179.136719 C 598.09375 180.328125 598.378906 181.542969 598.585938 182.777344 C 598.792969 184.007812 598.914062 185.25 598.957031 186.5 C 598.996094 187.746094 598.953125 188.992188 598.828125 190.238281 C 598.699219 191.480469 598.492188 192.710938 598.203125 193.925781 C 597.910156 195.140625 597.542969 196.332031 597.09375 197.5 C 596.644531 198.664062 596.121094 199.796875 595.519531 200.894531 C 594.917969 201.988281 594.25 203.042969 593.507812 204.046875 C 592.769531 205.054688 591.964844 206.007812 591.097656 206.90625 C 590.226562 207.808594 589.304688 208.644531 588.324219 209.421875 C 587.34375 210.195312 586.320312 210.90625 585.246094 211.542969 C 581.597656 213.578125 577.6875 214.597656 573.511719 214.597656 C 572.992188 214.597656 572.488281 214.699219 572.007812 214.898438 C 571.527344 215.097656 571.101562 215.382812 570.730469 215.75 C 570.363281 216.117188 570.078125 216.542969 569.878906 217.027344 C 569.679688 217.507812 569.582031 218.007812 569.582031 218.53125 C 569.582031 219.050781 569.679688 219.554688 569.878906 220.035156 C 570.078125 220.515625 570.363281 220.941406 570.730469 221.3125 C 571.101562 221.679688 571.527344 221.964844 572.007812 222.164062 C 572.488281 222.363281 572.992188 222.460938 573.511719 222.460938 C 576.398438 222.464844 579.230469 222.082031 582.011719 221.316406 C 584.792969 220.550781 587.421875 219.429688 589.898438 217.953125 L 590.0625 217.847656 C 590.785156 219.113281 591.421875 220.417969 591.972656 221.765625 C 592.519531 223.113281 592.976562 224.492188 593.34375 225.898438 C 593.710938 227.308594 593.980469 228.734375 594.15625 230.179688 C 594.332031 231.625 594.410156 233.074219 594.394531 234.53125 C 594.375 235.984375 594.261719 237.433594 594.050781 238.875 C 593.839844 240.3125 593.535156 241.734375 593.136719 243.132812 C 592.738281 244.535156 592.246094 245.898438 591.664062 247.234375 C 591.082031 248.570312 590.414062 249.859375 589.660156 251.105469 L 589.582031 251.03125 C 586.328125 248.542969 582.714844 246.792969 578.742188 245.789062 C 578.238281 245.660156 577.726562 245.632812 577.210938 245.703125 C 576.695312 245.777344 576.210938 245.949219 575.765625 246.214844 C 575.316406 246.476562 574.933594 246.820312 574.621094 247.234375 C 574.308594 247.652344 574.085938 248.113281 573.957031 248.617188 C 573.824219 249.121094 573.796875 249.632812 573.871094 250.148438 C 573.941406 250.664062 574.109375 251.148438 574.375 251.597656 C 574.640625 252.046875 574.980469 252.429688 575.394531 252.742188 C 575.8125 253.058594 576.273438 253.28125 576.777344 253.410156 C 579.710938 254.15625 582.378906 255.449219 584.777344 257.289062 C 584.960938 257.425781 585.15625 257.550781 585.355469 257.65625 C 586.082031 258.25 586.773438 258.875 587.433594 259.542969 C 588.09375 260.207031 588.714844 260.90625 589.300781 261.636719 C 589.882812 262.367188 590.425781 263.128906 590.929688 263.921875 C 591.429688 264.710938 591.890625 265.523438 592.304688 266.363281 C 592.71875 267.203125 593.089844 268.0625 593.410156 268.941406 C 593.734375 269.820312 594.007812 270.714844 594.238281 271.621094 C 594.464844 272.53125 594.640625 273.449219 594.769531 274.378906 C 594.898438 275.304688 594.976562 276.234375 595.003906 277.171875 C 595.03125 278.109375 595.011719 279.042969 594.9375 279.976562 C 594.867188 280.910156 594.746094 281.835938 594.574219 282.757812 C 594.402344 283.679688 594.183594 284.585938 593.914062 285.484375 C 593.644531 286.382812 593.328125 287.261719 592.964844 288.125 C 592.601562 288.988281 592.195312 289.828125 591.738281 290.648438 C 591.285156 291.464844 590.789062 292.257812 590.25 293.023438 C 589.710938 293.789062 589.132812 294.527344 588.515625 295.230469 C 587.898438 295.933594 587.246094 296.601562 586.558594 297.234375 C 585.867188 297.871094 585.144531 298.464844 584.394531 299.019531 C 583.640625 299.578125 582.859375 300.09375 582.050781 300.566406 C 581.242188 301.035156 580.410156 301.464844 579.558594 301.847656 C 578.703125 302.230469 577.828125 302.566406 576.941406 302.859375 C 576.050781 303.148438 575.144531 303.390625 574.230469 303.582031 C 573.3125 303.773438 572.390625 303.917969 571.457031 304.011719 C 570.527344 304.105469 569.589844 304.148438 568.65625 304.140625 C 567.71875 304.136719 566.785156 304.078125 565.855469 303.972656 C 564.925781 303.863281 564.003906 303.707031 563.089844 303.503906 C 562.175781 303.296875 561.277344 303.042969 560.390625 302.742188 C 559.503906 302.4375 558.636719 302.089844 557.789062 301.695312 C 556.9375 301.300781 556.113281 300.859375 555.3125 300.375 C 554.511719 299.890625 553.738281 299.367188 552.992188 298.800781 C 552.246094 298.234375 551.535156 297.628906 550.851562 296.984375 C 550.171875 296.339844 549.527344 295.664062 548.921875 294.949219 C 548.3125 294.238281 547.746094 293.496094 547.21875 292.722656 C 547.128906 292.441406 547.003906 292.175781 546.851562 291.921875 C 545.726562 290.066406 544.890625 288.089844 544.339844 285.992188 C 544.285156 285.730469 544.203125 285.480469 544.097656 285.238281 C 543.988281 284.996094 543.859375 284.769531 543.707031 284.554688 C 543.554688 284.335938 543.378906 284.140625 543.1875 283.957031 C 542.996094 283.777344 542.785156 283.617188 542.558594 283.480469 C 542.335938 283.339844 542.097656 283.226562 541.847656 283.136719 C 541.601562 283.042969 541.347656 282.980469 541.085938 282.941406 C 540.824219 282.902344 540.558594 282.886719 540.296875 282.902344 C 540.03125 282.914062 539.773438 282.957031 539.515625 283.019531 C 539.257812 283.085938 539.011719 283.179688 538.773438 283.292969 C 538.539062 283.410156 538.3125 283.550781 538.105469 283.710938 C 537.894531 283.871094 537.703125 284.050781 537.527344 284.25 C 537.355469 284.453125 537.203125 284.667969 537.074219 284.898438 C 536.945312 285.128906 536.839844 285.367188 536.757812 285.621094 C 536.675781 285.871094 536.621094 286.128906 536.589844 286.390625 C 536.5625 286.65625 536.558594 286.917969 536.582031 287.179688 C 536.605469 287.445312 536.65625 287.703125 536.730469 287.957031 C 537.277344 290.054688 538.039062 292.070312 539.019531 294.003906 C 537.191406 294.25 535.355469 294.3125 533.515625 294.195312 C 532.28125 294.128906 531.0625 293.964844 529.855469 293.703125 C 528.648438 293.445312 527.46875 293.09375 526.316406 292.648438 C 525.164062 292.207031 524.054688 291.675781 522.984375 291.058594 C 521.917969 290.441406 520.902344 289.746094 519.941406 288.96875 C 518.980469 288.195312 518.085938 287.347656 517.257812 286.433594 C 516.429688 285.519531 515.679688 284.542969 515.003906 283.511719 C 514.328125 282.480469 513.734375 281.398438 513.230469 280.273438 C 512.722656 279.148438 512.304688 277.992188 511.976562 276.800781 C 513.882812 276.796875 515.777344 276.65625 517.660156 276.375 C 518.175781 276.296875 518.65625 276.125 519.105469 275.855469 C 519.550781 275.585938 519.929688 275.242188 520.238281 274.824219 C 520.550781 274.40625 520.769531 273.941406 520.894531 273.4375 C 521.019531 272.929688 521.042969 272.417969 520.964844 271.902344 C 520.890625 271.386719 520.714844 270.90625 520.449219 270.457031 C 520.179688 270.011719 519.835938 269.632812 519.414062 269.324219 C 518.996094 269.011719 518.53125 268.792969 518.027344 268.667969 C 517.519531 268.542969 517.007812 268.519531 516.492188 268.597656 C 514.753906 268.859375 513.007812 268.972656 511.25 268.929688 L 511.171875 268.929688 C 510.734375 268.929688 510.308594 269.003906 509.894531 269.148438 C 505.117188 268.863281 500.546875 267.734375 496.183594 265.765625 C 492.738281 264.203125 489.605469 262.160156 486.789062 259.636719 C 483.972656 257.109375 481.605469 254.21875 479.679688 250.960938 C 482.367188 250.863281 485 250.4375 487.582031 249.679688 C 490.164062 248.921875 492.609375 247.859375 494.925781 246.488281 C 495.148438 246.359375 495.355469 246.207031 495.550781 246.035156 C 495.742188 245.863281 495.917969 245.671875 496.074219 245.464844 C 496.230469 245.257812 496.363281 245.039062 496.476562 244.804688 C 496.589844 244.570312 496.675781 244.328125 496.742188 244.078125 C 496.804688 243.824219 496.84375 243.570312 496.859375 243.3125 C 496.871094 243.054688 496.859375 242.796875 496.824219 242.539062 C 496.789062 242.28125 496.726562 242.03125 496.640625 241.789062 C 496.554688 241.542969 496.441406 241.308594 496.3125 241.085938 C 496.179688 240.863281 496.023438 240.65625 495.851562 240.464844 C 495.675781 240.273438 495.488281 240.097656 495.277344 239.945312 C 495.070312 239.789062 494.851562 239.65625 494.617188 239.546875 C 494.382812 239.433594 494.136719 239.347656 493.886719 239.285156 C 493.636719 239.222656 493.378906 239.183594 493.121094 239.171875 C 492.863281 239.160156 492.605469 239.171875 492.347656 239.210938 C 492.09375 239.25 491.84375 239.3125 491.597656 239.398438 C 491.355469 239.488281 491.121094 239.597656 490.898438 239.734375 C 488.632812 241.085938 486.210938 242.042969 483.632812 242.605469 C 481.050781 243.164062 478.449219 243.300781 475.828125 243.007812 C 454.605469 236.992188 450.582031 206.960938 459.828125 196.175781 C 460.097656 196 460.347656 195.792969 460.570312 195.558594 C 462.148438 193.855469 463.9375 192.414062 465.9375 191.234375 C 466.335938 190.949219 466.671875 190.601562 466.941406 190.195312 C 467.210938 189.785156 467.398438 189.339844 467.503906 188.863281 C 467.609375 188.382812 467.625 187.902344 467.546875 187.417969 C 467.472656 186.933594 467.3125 186.476562 467.066406 186.054688 C 466.820312 185.628906 466.503906 185.265625 466.121094 184.957031 C 465.738281 184.648438 465.316406 184.421875 464.847656 184.273438 C 464.378906 184.128906 463.902344 184.070312 463.410156 184.101562 C 462.921875 184.132812 462.457031 184.25 462.011719 184.457031 C 459.367188 186.027344 456.996094 187.941406 454.898438 190.191406 C 454.546875 190.578125 454.277344 191.011719 454.09375 191.5 C 445.152344 182.367188 441.796875 167.796875 448.160156 156.726562 C 448.351562 156.527344 448.519531 156.308594 448.660156 156.070312 Z M 511.289062 108.835938 C 511.203125 108.324219 511.023438 107.847656 510.746094 107.40625 C 510.46875 106.964844 510.117188 106.59375 509.695312 106.289062 C 509.269531 105.988281 508.804688 105.777344 508.296875 105.660156 C 507.792969 105.542969 507.28125 105.527344 506.765625 105.613281 C 505.808594 105.765625 504.84375 105.824219 503.871094 105.785156 C 502.898438 105.75 501.941406 105.617188 500.996094 105.390625 C 500.050781 105.167969 499.136719 104.851562 498.25 104.445312 C 497.367188 104.039062 496.53125 103.554688 495.746094 102.984375 C 494.957031 102.414062 494.234375 101.773438 493.570312 101.058594 C 492.910156 100.347656 492.324219 99.578125 491.8125 98.75 C 491.304688 97.921875 490.878906 97.054688 490.539062 96.144531 C 490.203125 95.230469 489.953125 94.296875 489.800781 93.335938 C 489.703125 92.832031 489.515625 92.363281 489.238281 91.929688 C 488.957031 91.496094 488.605469 91.132812 488.183594 90.839844 C 487.761719 90.542969 487.296875 90.339844 486.796875 90.226562 C 486.292969 90.117188 485.789062 90.101562 485.28125 90.1875 C 484.773438 90.273438 484.300781 90.453125 483.863281 90.722656 C 483.421875 90.996094 483.054688 91.339844 482.75 91.757812 C 482.449219 92.175781 482.238281 92.632812 482.113281 93.132812 C 481.992188 93.632812 481.96875 94.136719 482.046875 94.648438 C 482.261719 95.960938 482.589844 97.246094 483.035156 98.5 C 483.476562 99.753906 484.023438 100.960938 484.675781 102.121094 C 485.332031 103.28125 486.082031 104.371094 486.925781 105.398438 C 487.769531 106.425781 488.699219 107.375 489.710938 108.238281 C 490.722656 109.101562 491.800781 109.871094 492.949219 110.546875 C 494.09375 111.222656 495.292969 111.792969 496.539062 112.257812 C 497.785156 112.722656 499.0625 113.078125 500.371094 113.316406 C 501.679688 113.558594 503 113.683594 504.328125 113.691406 C 505.574219 113.691406 506.8125 113.585938 508.039062 113.378906 C 508.296875 113.335938 508.546875 113.269531 508.789062 113.179688 C 509.03125 113.089844 509.261719 112.976562 509.484375 112.839844 C 509.703125 112.703125 509.910156 112.546875 510.101562 112.367188 C 510.289062 112.191406 510.460938 111.996094 510.609375 111.785156 C 510.761719 111.574219 510.890625 111.351562 510.996094 111.113281 C 511.105469 110.875 511.1875 110.632812 511.246094 110.378906 C 511.304688 110.125 511.335938 109.871094 511.34375 109.609375 C 511.351562 109.351562 511.332031 109.09375 511.289062 108.835938 Z M 538.925781 256.234375 C 538.972656 256.753906 539.117188 257.246094 539.355469 257.710938 C 539.597656 258.171875 539.917969 258.570312 540.316406 258.90625 C 540.714844 259.242188 541.164062 259.488281 541.660156 259.644531 C 542.160156 259.804688 542.667969 259.859375 543.1875 259.8125 C 544.171875 259.730469 545.160156 259.742188 546.140625 259.851562 C 547.125 259.960938 548.089844 260.164062 549.03125 260.464844 C 549.976562 260.761719 550.878906 261.152344 551.746094 261.628906 C 552.613281 262.105469 553.425781 262.664062 554.183594 263.300781 C 554.9375 263.9375 555.625 264.640625 556.246094 265.414062 C 556.863281 266.1875 557.398438 267.011719 557.855469 267.890625 C 558.3125 268.769531 558.675781 269.683594 558.953125 270.632812 C 559.230469 271.582031 559.410156 272.550781 559.492188 273.539062 C 559.535156 274.03125 559.664062 274.496094 559.882812 274.941406 C 560.101562 275.382812 560.394531 275.769531 560.757812 276.105469 C 561.121094 276.4375 561.535156 276.695312 561.996094 276.871094 C 562.457031 277.050781 562.933594 277.136719 563.425781 277.136719 L 563.765625 277.136719 C 564.285156 277.089844 564.777344 276.949219 565.238281 276.707031 C 565.703125 276.46875 566.101562 276.148438 566.4375 275.75 C 566.773438 275.351562 567.019531 274.902344 567.175781 274.40625 C 567.332031 273.910156 567.390625 273.402344 567.34375 272.882812 C 567.28125 272.132812 567.179688 271.390625 567.042969 270.652344 C 566.90625 269.914062 566.730469 269.183594 566.523438 268.460938 C 566.3125 267.742188 566.070312 267.03125 565.789062 266.335938 C 565.511719 265.636719 565.199219 264.953125 564.855469 264.289062 C 564.507812 263.621094 564.128906 262.972656 563.722656 262.34375 C 563.3125 261.714844 562.871094 261.105469 562.402344 260.519531 C 561.933594 259.933594 561.4375 259.371094 560.914062 258.832031 C 560.386719 258.296875 559.839844 257.785156 559.265625 257.300781 C 558.6875 256.816406 558.09375 256.363281 557.472656 255.9375 C 556.855469 255.511719 556.214844 255.117188 555.558594 254.757812 C 554.898438 254.394531 554.226562 254.066406 553.535156 253.769531 C 552.84375 253.472656 552.140625 253.210938 551.425781 252.984375 C 550.710938 252.757812 549.984375 252.566406 549.25 252.410156 C 548.515625 252.253906 547.773438 252.136719 547.027344 252.050781 C 546.28125 251.96875 545.53125 251.921875 544.78125 251.914062 C 544.03125 251.902344 543.28125 251.929688 542.53125 251.996094 C 542.011719 252.035156 541.519531 252.175781 541.054688 252.414062 C 540.589844 252.652344 540.1875 252.96875 539.851562 253.367188 C 539.511719 253.765625 539.265625 254.210938 539.105469 254.710938 C 538.945312 255.207031 538.886719 255.714844 538.925781 256.234375 Z M 551.234375 203.882812 C 552.339844 201.792969 553.796875 199.992188 555.613281 198.476562 C 557.429688 196.964844 559.464844 195.855469 561.722656 195.152344 C 562.210938 194.988281 562.652344 194.738281 563.042969 194.398438 C 563.433594 194.0625 563.746094 193.660156 563.976562 193.203125 C 564.210938 192.742188 564.347656 192.253906 564.390625 191.738281 C 564.429688 191.222656 564.371094 190.71875 564.214844 190.230469 C 564.058594 189.738281 563.8125 189.292969 563.480469 188.898438 C 563.152344 188.503906 562.757812 188.183594 562.300781 187.945312 C 561.84375 187.703125 561.355469 187.558594 560.84375 187.511719 C 560.328125 187.460938 559.824219 187.511719 559.332031 187.660156 C 557.722656 188.164062 556.179688 188.816406 554.703125 189.621094 C 553.222656 190.425781 551.839844 191.367188 550.546875 192.445312 C 549.253906 193.523438 548.078125 194.71875 547.019531 196.027344 C 545.960938 197.335938 545.039062 198.734375 544.257812 200.226562 C 543.472656 201.710938 542.84375 203.261719 542.367188 204.875 C 541.894531 206.484375 541.582031 208.128906 541.4375 209.804688 C 541.292969 211.476562 541.316406 213.148438 541.503906 214.820312 C 541.695312 216.488281 542.046875 218.125 542.566406 219.722656 C 542.691406 220.121094 542.878906 220.488281 543.121094 220.828125 C 543.363281 221.167969 543.65625 221.460938 543.992188 221.707031 C 544.328125 221.953125 544.695312 222.140625 545.09375 222.269531 C 545.488281 222.398438 545.898438 222.464844 546.3125 222.460938 C 546.722656 222.464844 547.121094 222.398438 547.507812 222.273438 C 548.003906 222.113281 548.449219 221.867188 548.847656 221.53125 C 549.246094 221.191406 549.566406 220.792969 549.804688 220.328125 C 550.042969 219.867188 550.183594 219.375 550.230469 218.855469 C 550.273438 218.335938 550.214844 217.828125 550.054688 217.332031 C 549.339844 215.101562 549.082031 212.820312 549.289062 210.488281 C 549.492188 208.15625 550.140625 205.953125 551.234375 203.882812 Z M 544.414062 143.585938 C 546.257812 143.980469 548.121094 144.179688 550.003906 144.183594 C 552.453125 144.203125 554.84375 143.847656 557.175781 143.113281 C 559.511719 142.378906 561.675781 141.300781 563.667969 139.882812 C 563.886719 139.734375 564.089844 139.570312 564.273438 139.382812 C 564.457031 139.195312 564.621094 138.988281 564.765625 138.769531 C 564.910156 138.546875 565.03125 138.316406 565.128906 138.070312 C 565.222656 137.828125 565.296875 137.574219 565.34375 137.316406 C 565.390625 137.054688 565.410156 136.796875 565.402344 136.53125 C 565.398438 136.269531 565.363281 136.007812 565.308594 135.753906 C 565.25 135.496094 565.164062 135.246094 565.058594 135.007812 C 564.949219 134.765625 564.820312 134.539062 564.664062 134.328125 C 564.511719 134.113281 564.339844 133.917969 564.144531 133.738281 C 563.953125 133.558594 563.742188 133.402344 563.519531 133.265625 C 563.292969 133.125 563.058594 133.011719 562.808594 132.925781 C 562.5625 132.835938 562.308594 132.769531 562.046875 132.730469 C 561.789062 132.691406 561.527344 132.679688 561.261719 132.695312 C 561 132.707031 560.742188 132.75 560.488281 132.816406 C 560.230469 132.878906 559.984375 132.972656 559.75 133.085938 C 559.511719 133.203125 559.289062 133.339844 559.082031 133.5 C 555.507812 136.0625 550.875 136.914062 546.039062 135.890625 C 543.042969 135.253906 540.332031 134 537.90625 132.128906 C 540.234375 130.96875 542.410156 129.574219 544.441406 127.949219 C 546.46875 126.324219 548.304688 124.5 549.941406 122.480469 C 551.582031 120.460938 552.988281 118.292969 554.164062 115.972656 C 555.339844 113.652344 556.253906 111.234375 556.910156 108.71875 C 557.019531 108.222656 557.03125 107.722656 556.945312 107.222656 C 556.859375 106.71875 556.683594 106.253906 556.417969 105.820312 C 556.152344 105.386719 555.816406 105.019531 555.40625 104.71875 C 554.996094 104.414062 554.546875 104.199219 554.054688 104.074219 C 553.5625 103.945312 553.0625 103.914062 552.558594 103.980469 C 552.054688 104.046875 551.582031 104.207031 551.136719 104.457031 C 550.695312 104.707031 550.316406 105.027344 549.996094 105.425781 C 549.679688 105.824219 549.449219 106.265625 549.300781 106.753906 C 549.0625 107.660156 548.78125 108.554688 548.457031 109.433594 C 548.128906 110.3125 547.761719 111.175781 547.351562 112.019531 C 546.941406 112.863281 546.488281 113.683594 546 114.484375 C 545.507812 115.285156 544.976562 116.058594 544.410156 116.804688 C 543.84375 117.550781 543.242188 118.269531 542.605469 118.957031 C 541.964844 119.648438 541.296875 120.300781 540.59375 120.925781 C 539.890625 121.546875 539.160156 122.132812 538.402344 122.683594 C 537.640625 123.238281 536.859375 123.75 536.046875 124.222656 C 535.238281 124.695312 534.40625 125.128906 533.554688 125.523438 C 532.703125 125.914062 531.832031 126.265625 530.945312 126.570312 C 530.058594 126.878906 529.160156 127.140625 528.246094 127.359375 C 527.335938 127.578125 526.414062 127.75 525.484375 127.878906 C 524.554688 128.007812 523.621094 128.089844 522.683594 128.128906 C 521.746094 128.164062 520.808594 128.15625 519.871094 128.097656 C 518.933594 128.042969 518.003906 127.941406 517.078125 127.796875 C 516.148438 127.648438 515.230469 127.457031 514.324219 127.21875 C 514.070312 127.144531 513.8125 127.09375 513.550781 127.070312 C 513.285156 127.046875 513.023438 127.050781 512.757812 127.078125 C 512.496094 127.109375 512.238281 127.164062 511.988281 127.246094 C 511.734375 127.328125 511.496094 127.433594 511.265625 127.5625 C 511.035156 127.691406 510.820312 127.84375 510.621094 128.019531 C 510.417969 128.191406 510.238281 128.382812 510.078125 128.59375 C 509.917969 128.800781 509.777344 129.027344 509.664062 129.261719 C 509.546875 129.5 509.457031 129.746094 509.390625 130.003906 C 509.324219 130.261719 509.28125 130.519531 509.269531 130.785156 C 509.253906 131.046875 509.269531 131.3125 509.308594 131.574219 C 509.347656 131.835938 509.414062 132.089844 509.503906 132.339844 C 509.59375 132.585938 509.707031 132.824219 509.847656 133.046875 C 509.984375 133.273438 510.144531 133.484375 510.328125 133.675781 C 510.507812 133.867188 510.707031 134.042969 510.921875 134.195312 C 511.136719 134.347656 511.367188 134.476562 511.609375 134.585938 C 511.847656 134.691406 512.097656 134.773438 512.359375 134.828125 C 515.386719 135.625 518.46875 136.019531 521.597656 136.023438 C 524.300781 136.019531 526.972656 135.71875 529.609375 135.117188 C 531.570312 137.273438 533.816406 139.070312 536.34375 140.519531 C 538.871094 141.964844 541.5625 142.988281 544.414062 143.585938 Z M 471.921875 172.035156 C 473.667969 174.113281 475.601562 176 477.71875 177.695312 C 479.839844 179.390625 482.105469 180.863281 484.519531 182.109375 C 486.929688 183.355469 489.441406 184.351562 492.050781 185.097656 C 494.660156 185.847656 497.316406 186.332031 500.023438 186.554688 C 501.203125 186.652344 502.375 186.699219 503.550781 186.699219 C 504.550781 186.699219 505.554688 186.652344 506.542969 186.578125 C 506.078125 188.359375 505.375 190.039062 504.433594 191.621094 C 503.496094 193.199219 502.355469 194.621094 501.011719 195.878906 C 500.050781 196.789062 499.011719 197.597656 497.890625 198.304688 C 496.769531 199.011719 495.589844 199.597656 494.351562 200.070312 C 493.117188 200.546875 491.84375 200.890625 490.539062 201.113281 C 489.234375 201.335938 487.917969 201.429688 486.59375 201.390625 C 486.074219 201.378906 485.570312 201.46875 485.082031 201.660156 C 484.597656 201.847656 484.164062 202.125 483.789062 202.484375 C 483.410156 202.84375 483.117188 203.265625 482.90625 203.742188 C 482.699219 204.21875 482.585938 204.71875 482.578125 205.242188 C 482.566406 205.765625 482.65625 206.269531 482.84375 206.753906 C 483.035156 207.242188 483.308594 207.671875 483.671875 208.046875 C 484.03125 208.425781 484.453125 208.71875 484.929688 208.925781 C 485.410156 209.136719 485.910156 209.246094 486.429688 209.257812 L 487.039062 209.257812 C 488.824219 209.261719 490.589844 209.101562 492.34375 208.769531 C 494.09375 208.441406 495.800781 207.945312 497.457031 207.289062 C 499.117188 206.632812 500.695312 205.828125 502.199219 204.871094 C 503.703125 203.910156 505.105469 202.820312 506.402344 201.59375 C 508.714844 199.417969 510.59375 196.914062 512.039062 194.085938 C 513.484375 191.253906 514.410156 188.261719 514.816406 185.113281 C 520.523438 183.488281 525.640625 180.761719 530.171875 176.925781 C 530.375 176.761719 530.554688 176.578125 530.722656 176.375 C 530.886719 176.171875 531.03125 175.957031 531.152344 175.726562 C 531.273438 175.496094 531.371094 175.257812 531.445312 175.007812 C 531.519531 174.757812 531.570312 174.5 531.59375 174.242188 C 531.617188 173.984375 531.613281 173.722656 531.585938 173.464844 C 531.558594 173.203125 531.503906 172.949219 531.425781 172.703125 C 531.347656 172.453125 531.246094 172.214844 531.121094 171.988281 C 530.996094 171.757812 530.847656 171.546875 530.679688 171.347656 C 530.511719 171.148438 530.324219 170.96875 530.121094 170.804688 C 529.914062 170.644531 529.699219 170.503906 529.464844 170.382812 C 529.234375 170.265625 528.992188 170.171875 528.742188 170.101562 C 528.488281 170.03125 528.234375 169.984375 527.972656 169.964844 C 527.714844 169.945312 527.453125 169.953125 527.195312 169.984375 C 526.9375 170.015625 526.683594 170.074219 526.4375 170.15625 C 526.191406 170.238281 525.953125 170.34375 525.726562 170.472656 C 525.5 170.601562 525.289062 170.75 525.09375 170.921875 C 523 172.699219 520.722656 174.195312 518.257812 175.410156 C 515.796875 176.625 513.222656 177.519531 510.535156 178.09375 L 510.265625 178.144531 C 507.101562 178.796875 503.90625 178.984375 500.683594 178.714844 C 498.492188 178.539062 496.339844 178.144531 494.226562 177.542969 C 492.113281 176.9375 490.078125 176.128906 488.125 175.121094 C 486.167969 174.113281 484.332031 172.921875 482.617188 171.550781 C 480.898438 170.175781 479.332031 168.648438 477.917969 166.964844 C 477.578125 166.566406 477.179688 166.25 476.71875 166.015625 C 476.253906 165.777344 475.765625 165.636719 475.246094 165.59375 C 474.726562 165.550781 474.222656 165.609375 473.726562 165.769531 C 473.230469 165.925781 472.785156 166.175781 472.386719 166.507812 C 471.988281 166.84375 471.671875 167.242188 471.433594 167.703125 C 471.195312 168.167969 471.050781 168.65625 471.007812 169.175781 C 470.960938 169.691406 471.015625 170.199219 471.171875 170.695312 C 471.328125 171.191406 471.574219 171.636719 471.90625 172.035156 Z M 471.921875 172.035156 " fill-opacity="1" fill-rule="nonzero"/></g></svg>