<?xml version="1.0" encoding="utf-8"?>
<svg viewBox="0 0 456 456" xmlns="http://www.w3.org/2000/svg">
  <defs>
    <clipPath id="b7511539c9">
      <path d="M 185.675781 68 L 336 68 L 336 308 L 185.675781 308 Z M 185.675781 68 " clip-rule="nonzero"/>
    </clipPath>
    <clipPath id="c3baece6a7">
      <path d="M 39 66 L 189 66 L 189 307 L 39 307 Z M 39 66 " clip-rule="nonzero"/>
    </clipPath>
  </defs>
  <g transform="matrix(0.846206009388, 0, 0, 0.846206009388, 71.94187092313, 79.414508976677)" style="transform-origin: -81.9419px -82.4145px;">
    <g clip-path="url(#b7511539c9)">
      <path fill="#4a1085" d="M 330.726562 163.207031 C 330.324219 162.546875 329.890625 161.910156 329.425781 161.292969 C 328.960938 160.675781 328.464844 160.085938 327.941406 159.519531 C 327.417969 158.949219 326.871094 158.410156 326.292969 157.894531 C 325.71875 157.382812 325.117188 156.898438 324.492188 156.441406 C 323.871094 155.988281 323.226562 155.5625 322.558594 155.171875 C 321.894531 154.78125 321.210938 154.421875 320.511719 154.097656 C 319.8125 153.773438 319.097656 153.484375 318.367188 153.226562 C 317.640625 152.972656 316.898438 152.753906 316.148438 152.570312 C 315.398438 152.390625 314.644531 152.242188 313.878906 152.136719 C 313.113281 152.027344 312.347656 151.957031 311.574219 151.925781 C 310.804688 151.890625 310.03125 151.894531 309.261719 151.9375 C 308.492188 151.980469 307.722656 152.0625 306.960938 152.179688 C 306.199219 152.296875 305.441406 152.453125 304.695312 152.644531 C 303.945312 152.835938 303.210938 153.0625 302.484375 153.328125 C 301.757812 153.589844 301.046875 153.890625 300.351562 154.222656 C 299.65625 154.554688 298.976562 154.921875 298.316406 155.324219 C 297.882812 155.585938 297.414062 155.757812 296.914062 155.835938 C 296.410156 155.914062 295.914062 155.894531 295.417969 155.773438 C 294.925781 155.652344 294.472656 155.445312 294.0625 155.144531 C 293.652344 154.84375 293.316406 154.476562 293.050781 154.042969 C 292.785156 153.609375 292.617188 153.140625 292.539062 152.636719 C 292.460938 152.136719 292.480469 151.636719 292.601562 151.144531 C 292.71875 150.652344 292.929688 150.199219 293.230469 149.789062 C 293.53125 149.378906 293.898438 149.039062 294.332031 148.777344 C 295.101562 148.308594 295.890625 147.875 296.699219 147.472656 C 297.507812 147.074219 298.328125 146.710938 299.167969 146.382812 C 300.007812 146.054688 300.859375 145.761719 301.722656 145.503906 C 302.589844 145.25 303.460938 145.035156 304.34375 144.855469 C 305.230469 144.675781 306.117188 144.53125 307.011719 144.429688 C 307.910156 144.328125 308.808594 144.261719 309.707031 144.238281 C 310.609375 144.210938 311.507812 144.226562 312.410156 144.277344 C 313.308594 144.332031 314.203125 144.421875 315.097656 144.550781 C 315.988281 144.683594 316.871094 144.851562 317.75 145.058594 C 318.628906 145.261719 319.496094 145.507812 320.351562 145.789062 C 321.207031 146.070312 322.050781 146.386719 322.878906 146.742188 C 323.707031 147.09375 324.519531 147.484375 325.316406 147.910156 C 326.109375 148.332031 326.886719 148.789062 327.640625 149.28125 C 328.398438 149.773438 329.128906 150.296875 329.839844 150.851562 C 330.550781 151.40625 331.234375 151.988281 331.894531 152.601562 C 332.554688 153.214844 333.1875 153.855469 333.792969 154.523438 C 335.265625 147.46875 335.59375 140.359375 334.777344 133.199219 C 334.269531 129.070312 333.203125 125.09375 331.574219 121.265625 C 329.945312 117.441406 327.820312 113.914062 325.195312 110.6875 C 324.453125 114.632812 323.003906 118.300781 320.851562 121.6875 C 320.578125 122.113281 320.230469 122.472656 319.816406 122.761719 C 319.398438 123.054688 318.941406 123.253906 318.445312 123.363281 C 317.949219 123.46875 317.453125 123.480469 316.953125 123.390625 C 316.453125 123.300781 315.988281 123.121094 315.558594 122.847656 C 315.132812 122.570312 314.773438 122.226562 314.480469 121.808594 C 314.191406 121.394531 313.992188 120.9375 313.882812 120.441406 C 313.773438 119.945312 313.761719 119.445312 313.851562 118.945312 C 313.941406 118.445312 314.121094 117.984375 314.394531 117.554688 C 315.734375 115.445312 316.714844 113.175781 317.339844 110.757812 C 317.960938 108.335938 318.195312 105.875 318.042969 103.378906 C 318.027344 103.199219 318.027344 103.015625 318.042969 102.832031 C 317.953125 101.902344 317.820312 100.980469 317.640625 100.066406 C 317.460938 99.152344 317.230469 98.25 316.960938 97.359375 C 316.6875 96.46875 316.367188 95.59375 316.003906 94.734375 C 315.644531 93.875 315.238281 93.039062 314.789062 92.222656 C 314.339844 91.402344 313.851562 90.613281 313.324219 89.84375 C 312.796875 89.078125 312.230469 88.339844 311.625 87.628906 C 311.019531 86.921875 310.378906 86.242188 309.707031 85.597656 C 309.035156 84.953125 308.328125 84.347656 307.59375 83.773438 C 306.859375 83.203125 306.09375 82.667969 305.304688 82.175781 C 304.515625 81.679688 303.703125 81.226562 302.863281 80.816406 C 302.027344 80.40625 301.171875 80.035156 300.300781 79.714844 C 299.425781 79.390625 298.539062 79.109375 297.636719 78.878906 C 296.734375 78.644531 295.820312 78.457031 294.898438 78.316406 C 293.976562 78.175781 293.050781 78.085938 292.121094 78.039062 C 291.191406 77.992188 290.257812 77.996094 289.328125 78.042969 C 288.398438 78.09375 287.472656 78.191406 286.550781 78.335938 L 286.359375 78.378906 C 284.195312 78.71875 282.121094 79.34375 280.136719 80.261719 C 278.148438 81.179688 276.324219 82.351562 274.664062 83.777344 C 274.472656 83.945312 274.269531 84.09375 274.050781 84.222656 C 273.832031 84.351562 273.601562 84.457031 273.359375 84.539062 C 273.117188 84.621094 272.871094 84.679688 272.621094 84.710938 C 272.367188 84.746094 272.117188 84.753906 271.863281 84.734375 C 271.609375 84.71875 271.359375 84.675781 271.113281 84.609375 C 270.867188 84.542969 270.632812 84.453125 270.40625 84.339844 C 270.175781 84.222656 269.964844 84.089844 269.761719 83.933594 C 269.5625 83.777344 269.378906 83.601562 269.214844 83.410156 C 269.046875 83.214844 268.902344 83.007812 268.777344 82.789062 C 268.652344 82.566406 268.550781 82.332031 268.472656 82.09375 C 268.394531 81.851562 268.34375 81.601562 268.3125 81.351562 C 268.285156 81.097656 268.28125 80.84375 268.300781 80.589844 C 268.324219 80.339844 268.367188 80.089844 268.4375 79.84375 C 268.511719 79.601562 268.605469 79.367188 268.722656 79.140625 C 268.839844 78.914062 268.976562 78.703125 269.136719 78.503906 C 269.296875 78.308594 269.472656 78.128906 269.667969 77.964844 C 272.089844 75.882812 274.765625 74.214844 277.699219 72.957031 C 274.140625 71.128906 270.410156 69.773438 266.507812 68.882812 C 256.695312 66.894531 244.523438 68.0625 235.210938 74.667969 C 238.941406 76.136719 242.25 78.265625 245.128906 81.054688 C 245.476562 81.414062 245.746094 81.820312 245.933594 82.28125 C 246.121094 82.746094 246.214844 83.222656 246.214844 83.722656 C 246.21875 84.21875 246.125 84.699219 245.941406 85.164062 C 245.753906 85.625 245.488281 86.035156 245.140625 86.394531 C 244.796875 86.75 244.394531 87.03125 243.941406 87.234375 C 243.484375 87.4375 243.007812 87.546875 242.511719 87.5625 C 242.011719 87.578125 241.53125 87.5 241.0625 87.328125 C 240.59375 87.15625 240.175781 86.902344 239.808594 86.570312 C 238.273438 85.082031 236.5625 83.839844 234.671875 82.84375 C 232.785156 81.847656 230.792969 81.136719 228.699219 80.710938 L 228.515625 80.667969 C 227.347656 80.441406 226.167969 80.292969 224.980469 80.226562 C 223.789062 80.164062 222.605469 80.175781 221.417969 80.273438 C 220.230469 80.367188 219.054688 80.542969 217.894531 80.796875 C 216.730469 81.050781 215.589844 81.386719 214.472656 81.796875 C 213.355469 82.203125 212.269531 82.6875 211.21875 83.246094 C 210.167969 83.804688 209.160156 84.429688 208.191406 85.125 C 207.226562 85.816406 206.308594 86.574219 205.445312 87.394531 C 204.582031 88.210938 203.777344 89.085938 203.03125 90.015625 C 202.289062 90.941406 201.609375 91.917969 200.996094 92.9375 C 200.382812 93.957031 199.84375 95.015625 199.375 96.109375 C 198.90625 97.203125 198.511719 98.324219 198.195312 99.472656 C 197.878906 100.621094 197.640625 101.78125 197.484375 102.960938 C 197.324219 104.140625 197.246094 105.328125 197.25 106.515625 C 197.253906 107.707031 197.335938 108.890625 197.5 110.070312 C 197.664062 111.25 197.90625 112.414062 198.226562 113.558594 C 198.546875 114.703125 198.945312 115.824219 199.421875 116.914062 C 199.53125 117.085938 199.632812 117.265625 199.71875 117.453125 C 200.902344 120.074219 202.527344 122.382812 204.601562 124.375 C 204.964844 124.730469 205.25 125.140625 205.453125 125.605469 C 205.65625 126.070312 205.761719 126.558594 205.769531 127.066406 C 205.777344 127.574219 205.6875 128.066406 205.503906 128.539062 C 205.316406 129.011719 205.046875 129.429688 204.691406 129.796875 C 204.339844 130.160156 203.929688 130.445312 203.464844 130.648438 C 202.996094 130.851562 202.511719 130.957031 202.003906 130.964844 C 201.492188 130.972656 201.003906 130.882812 200.53125 130.699219 C 200.058594 130.511719 199.636719 130.242188 199.273438 129.886719 C 197.210938 127.902344 195.46875 125.664062 194.046875 123.175781 C 192.554688 125.144531 191.335938 127.269531 190.394531 129.554688 C 189.449219 131.839844 188.816406 134.203125 188.484375 136.652344 C 186.972656 146.277344 188.675781 155.476562 194.136719 163.429688 C 194.375 163.214844 194.636719 163.03125 194.921875 162.886719 C 199.386719 160.613281 204.121094 159.480469 209.128906 159.480469 C 209.636719 159.480469 210.125 159.578125 210.59375 159.773438 C 211.066406 159.96875 211.480469 160.246094 211.839844 160.605469 C 212.199219 160.964844 212.476562 161.378906 212.667969 161.847656 C 212.863281 162.316406 212.960938 162.804688 212.960938 163.3125 C 212.960938 163.824219 212.863281 164.3125 212.667969 164.78125 C 212.476562 165.25 212.199219 165.664062 211.839844 166.023438 C 211.480469 166.382812 211.066406 166.660156 210.59375 166.855469 C 210.125 167.050781 209.636719 167.148438 209.128906 167.148438 C 205.640625 167.136719 202.316406 167.875 199.15625 169.363281 C 198.074219 169.917969 197.03125 170.542969 196.027344 171.234375 C 195.027344 171.929688 194.078125 172.683594 193.175781 173.503906 C 192.277344 174.324219 191.433594 175.203125 190.648438 176.132812 C 189.867188 177.066406 189.148438 178.046875 188.496094 179.078125 C 187.84375 180.105469 187.261719 181.171875 186.75 182.277344 C 186.242188 183.382812 185.808594 184.519531 185.449219 185.683594 C 185.089844 186.847656 184.8125 188.03125 184.609375 189.230469 C 184.410156 190.433594 184.289062 191.644531 184.25 192.859375 C 184.210938 194.078125 184.253906 195.292969 184.375 196.503906 C 184.5 197.714844 184.699219 198.914062 184.984375 200.097656 C 185.265625 201.285156 185.625 202.445312 186.066406 203.582031 C 186.503906 204.71875 187.011719 205.820312 187.597656 206.890625 C 188.183594 207.957031 188.835938 208.984375 189.558594 209.964844 C 190.28125 210.945312 191.0625 211.875 191.910156 212.75 C 192.753906 213.628906 193.65625 214.445312 194.609375 215.199219 C 195.566406 215.957031 196.566406 216.644531 197.613281 217.269531 C 201.164062 219.253906 204.976562 220.246094 209.046875 220.246094 C 209.554688 220.246094 210.042969 220.34375 210.511719 220.539062 C 210.980469 220.730469 211.398438 221.007812 211.757812 221.367188 C 212.113281 221.726562 212.390625 222.140625 212.585938 222.613281 C 212.78125 223.082031 212.878906 223.570312 212.878906 224.078125 C 212.878906 224.585938 212.78125 225.074219 212.585938 225.546875 C 212.390625 226.015625 212.113281 226.429688 211.757812 226.789062 C 211.398438 227.148438 210.980469 227.425781 210.511719 227.617188 C 210.042969 227.8125 209.554688 227.910156 209.046875 227.910156 C 206.234375 227.914062 203.472656 227.539062 200.765625 226.792969 C 198.054688 226.050781 195.492188 224.957031 193.078125 223.515625 L 192.917969 223.414062 C 192.210938 224.644531 191.59375 225.917969 191.054688 227.230469 C 190.519531 228.542969 190.074219 229.886719 189.71875 231.261719 C 189.363281 232.632812 189.097656 234.023438 188.925781 235.433594 C 188.753906 236.839844 188.679688 238.253906 188.695312 239.671875 C 188.710938 241.089844 188.824219 242.5 189.027344 243.90625 C 189.234375 245.308594 189.53125 246.691406 189.921875 248.058594 C 190.308594 249.421875 190.789062 250.753906 191.355469 252.054688 C 191.921875 253.355469 192.574219 254.609375 193.308594 255.824219 L 193.382812 255.753906 C 196.554688 253.328125 200.078125 251.625 203.949219 250.644531 C 204.441406 250.519531 204.9375 250.492188 205.441406 250.5625 C 205.945312 250.632812 206.414062 250.800781 206.851562 251.058594 C 207.289062 251.316406 207.660156 251.648438 207.964844 252.054688 C 208.269531 252.460938 208.488281 252.910156 208.613281 253.402344 C 208.742188 253.894531 208.769531 254.390625 208.699219 254.894531 C 208.628906 255.398438 208.464844 255.867188 208.207031 256.304688 C 207.949219 256.742188 207.617188 257.117188 207.210938 257.421875 C 206.804688 257.726562 206.355469 257.945312 205.863281 258.074219 C 203.003906 258.796875 200.40625 260.058594 198.066406 261.855469 C 197.886719 261.988281 197.699219 262.105469 197.503906 262.210938 C 196.796875 262.789062 196.121094 263.398438 195.476562 264.046875 C 194.835938 264.695312 194.230469 265.375 193.660156 266.089844 C 193.089844 266.804688 192.5625 267.542969 192.074219 268.316406 C 191.582031 269.085938 191.136719 269.878906 190.730469 270.695312 C 190.328125 271.515625 189.96875 272.351562 189.652344 273.210938 C 189.335938 274.066406 189.070312 274.9375 188.847656 275.824219 C 188.628906 276.707031 188.453125 277.601562 188.328125 278.507812 C 188.203125 279.410156 188.128906 280.320312 188.101562 281.230469 C 188.074219 282.144531 188.09375 283.054688 188.164062 283.964844 C 188.234375 284.875 188.351562 285.777344 188.519531 286.675781 C 188.6875 287.570312 188.902344 288.457031 189.164062 289.332031 C 189.425781 290.207031 189.734375 291.0625 190.085938 291.902344 C 190.441406 292.746094 190.839844 293.566406 191.28125 294.363281 C 191.722656 295.160156 192.207031 295.933594 192.734375 296.679688 C 193.257812 297.425781 193.820312 298.144531 194.421875 298.828125 C 195.023438 299.515625 195.660156 300.167969 196.332031 300.785156 C 197.003906 301.402344 197.707031 301.980469 198.441406 302.523438 C 199.175781 303.066406 199.9375 303.566406 200.726562 304.027344 C 201.511719 304.488281 202.324219 304.90625 203.15625 305.28125 C 203.988281 305.652344 204.839844 305.980469 205.707031 306.265625 C 206.574219 306.546875 207.453125 306.78125 208.347656 306.96875 C 209.242188 307.15625 210.140625 307.296875 211.050781 307.386719 C 211.957031 307.480469 212.867188 307.523438 213.78125 307.515625 C 214.691406 307.507812 215.601562 307.453125 216.507812 307.347656 C 217.414062 307.246094 218.3125 307.09375 219.203125 306.894531 C 220.09375 306.691406 220.972656 306.445312 221.835938 306.148438 C 222.699219 305.855469 223.542969 305.515625 224.371094 305.128906 C 225.199219 304.746094 226.003906 304.316406 226.785156 303.84375 C 227.566406 303.375 228.320312 302.859375 229.046875 302.308594 C 229.773438 301.757812 230.46875 301.167969 231.128906 300.539062 C 231.792969 299.910156 232.421875 299.25 233.011719 298.558594 C 233.605469 297.863281 234.15625 297.136719 234.671875 296.382812 C 234.761719 296.109375 234.878906 295.851562 235.03125 295.605469 C 236.128906 293.796875 236.941406 291.871094 237.476562 289.824219 C 237.53125 289.574219 237.609375 289.328125 237.714844 289.09375 C 237.820312 288.855469 237.945312 288.632812 238.09375 288.425781 C 238.246094 288.214844 238.414062 288.019531 238.601562 287.84375 C 238.789062 287.667969 238.992188 287.511719 239.210938 287.378906 C 239.433594 287.242188 239.664062 287.128906 239.90625 287.042969 C 240.148438 286.953125 240.394531 286.890625 240.652344 286.851562 C 240.90625 286.8125 241.160156 286.800781 241.417969 286.8125 C 241.675781 286.828125 241.929688 286.867188 242.179688 286.929688 C 242.429688 286.996094 242.671875 287.085938 242.902344 287.199219 C 243.132812 287.308594 243.351562 287.445312 243.554688 287.601562 C 243.761719 287.757812 243.945312 287.933594 244.117188 288.128906 C 244.285156 288.324219 244.433594 288.535156 244.558594 288.757812 C 244.6875 288.984375 244.789062 289.21875 244.867188 289.464844 C 244.945312 289.710938 245 289.960938 245.03125 290.214844 C 245.058594 290.472656 245.0625 290.730469 245.039062 290.984375 C 245.015625 291.242188 244.964844 291.492188 244.890625 291.742188 C 244.363281 293.785156 243.617188 295.75 242.664062 297.636719 C 244.445312 297.875 246.234375 297.9375 248.027344 297.820312 C 249.230469 297.753906 250.417969 297.59375 251.59375 297.34375 C 252.769531 297.089844 253.921875 296.746094 255.042969 296.316406 C 256.164062 295.882812 257.246094 295.367188 258.289062 294.765625 C 259.332031 294.164062 260.320312 293.484375 261.253906 292.730469 C 262.191406 291.972656 263.0625 291.148438 263.871094 290.257812 C 264.675781 289.363281 265.410156 288.414062 266.070312 287.410156 C 266.726562 286.402344 267.304688 285.351562 267.800781 284.253906 C 268.292969 283.15625 268.699219 282.03125 269.019531 280.871094 C 267.160156 280.867188 265.316406 280.726562 263.480469 280.453125 C 262.976562 280.378906 262.507812 280.210938 262.074219 279.949219 C 261.636719 279.6875 261.269531 279.351562 260.964844 278.941406 C 260.664062 278.53125 260.453125 278.082031 260.328125 277.589844 C 260.207031 277.09375 260.183594 276.597656 260.257812 276.09375 C 260.332031 275.59375 260.5 275.121094 260.761719 274.6875 C 261.027344 274.25 261.359375 273.882812 261.769531 273.582031 C 262.179688 273.277344 262.628906 273.066406 263.121094 272.941406 C 263.617188 272.820312 264.113281 272.796875 264.617188 272.871094 C 266.3125 273.128906 268.015625 273.238281 269.726562 273.199219 L 269.804688 273.199219 C 270.230469 273.199219 270.644531 273.269531 271.050781 273.410156 C 275.707031 273.128906 280.160156 272.03125 284.410156 270.113281 C 287.769531 268.59375 290.820312 266.601562 293.566406 264.140625 C 296.3125 261.675781 298.621094 258.859375 300.496094 255.683594 C 297.875 255.589844 295.308594 255.175781 292.792969 254.4375 C 290.277344 253.699219 287.894531 252.664062 285.636719 251.328125 C 285.199219 251.070312 284.824219 250.734375 284.519531 250.328125 C 284.210938 249.921875 283.996094 249.46875 283.867188 248.976562 C 283.742188 248.480469 283.714844 247.980469 283.785156 247.476562 C 283.859375 246.972656 284.027344 246.5 284.289062 246.0625 C 284.546875 245.625 284.882812 245.253906 285.292969 244.949219 C 285.703125 244.644531 286.152344 244.429688 286.648438 244.304688 C 287.144531 244.179688 287.644531 244.15625 288.148438 244.234375 C 288.652344 244.308594 289.125 244.476562 289.558594 244.742188 C 291.769531 246.0625 294.128906 246.996094 296.644531 247.542969 C 299.160156 248.085938 301.695312 248.21875 304.25 247.9375 C 324.933594 242.070312 328.855469 212.804688 319.84375 202.289062 C 319.578125 202.121094 319.339844 201.917969 319.121094 201.691406 C 317.582031 200.03125 315.835938 198.625 313.890625 197.472656 C 313.5 197.199219 313.171875 196.859375 312.910156 196.460938 C 312.644531 196.0625 312.464844 195.628906 312.363281 195.164062 C 312.257812 194.695312 312.246094 194.226562 312.320312 193.753906 C 312.394531 193.28125 312.550781 192.839844 312.789062 192.425781 C 313.03125 192.011719 313.335938 191.65625 313.707031 191.359375 C 314.082031 191.058594 314.496094 190.835938 314.949219 190.695312 C 315.40625 190.550781 315.875 190.492188 316.351562 190.523438 C 316.828125 190.554688 317.28125 190.667969 317.714844 190.871094 C 320.292969 192.402344 322.601562 194.265625 324.644531 196.457031 C 324.992188 196.835938 325.253906 197.261719 325.433594 197.738281 C 334.144531 188.832031 337.414062 174.632812 331.210938 163.84375 C 331.027344 163.648438 330.863281 163.4375 330.726562 163.207031 Z M 269.6875 117.171875 C 269.773438 116.671875 269.949219 116.207031 270.21875 115.777344 C 270.488281 115.34375 270.828125 114.984375 271.242188 114.6875 C 271.65625 114.394531 272.109375 114.191406 272.605469 114.074219 C 273.097656 113.960938 273.59375 113.945312 274.097656 114.027344 C 275.03125 114.175781 275.972656 114.234375 276.917969 114.199219 C 277.867188 114.160156 278.800781 114.035156 279.722656 113.8125 C 280.644531 113.59375 281.535156 113.285156 282.394531 112.890625 C 283.257812 112.496094 284.070312 112.023438 284.839844 111.464844 C 285.605469 110.910156 286.3125 110.285156 286.957031 109.59375 C 287.601562 108.898438 288.171875 108.148438 288.667969 107.339844 C 289.167969 106.535156 289.582031 105.6875 289.910156 104.800781 C 290.242188 103.910156 290.480469 103 290.632812 102.066406 C 290.726562 101.570312 290.910156 101.113281 291.183594 100.691406 C 291.453125 100.269531 291.796875 99.917969 292.207031 99.628906 C 292.621094 99.34375 293.070312 99.144531 293.5625 99.035156 C 294.050781 98.925781 294.542969 98.914062 295.039062 98.996094 C 295.53125 99.078125 295.992188 99.253906 296.421875 99.519531 C 296.847656 99.785156 297.207031 100.117188 297.5 100.523438 C 297.796875 100.929688 298.003906 101.378906 298.121094 101.867188 C 298.242188 102.355469 298.265625 102.847656 298.191406 103.34375 C 297.976562 104.621094 297.65625 105.875 297.226562 107.097656 C 296.796875 108.320312 296.261719 109.496094 295.625 110.625 C 294.988281 111.753906 294.257812 112.820312 293.433594 113.820312 C 292.609375 114.824219 291.703125 115.746094 290.71875 116.585938 C 289.734375 117.429688 288.683594 118.179688 287.5625 118.839844 C 286.445312 119.496094 285.28125 120.050781 284.066406 120.503906 C 282.851562 120.960938 281.605469 121.304688 280.332031 121.539062 C 279.054688 121.773438 277.769531 121.894531 276.472656 121.90625 C 275.257812 121.902344 274.054688 121.800781 272.855469 121.597656 C 272.351562 121.515625 271.882812 121.339844 271.449219 121.070312 C 271.015625 120.800781 270.648438 120.460938 270.351562 120.042969 C 270.054688 119.628906 269.847656 119.171875 269.730469 118.675781 C 269.617188 118.175781 269.601562 117.675781 269.6875 117.171875 Z M 242.753906 260.824219 C 242.707031 261.332031 242.570312 261.8125 242.335938 262.261719 C 242.101562 262.714844 241.789062 263.101562 241.398438 263.429688 C 241.011719 263.757812 240.574219 263.996094 240.089844 264.148438 C 239.601562 264.304688 239.105469 264.355469 238.601562 264.3125 C 237.640625 264.230469 236.679688 264.242188 235.722656 264.347656 C 234.761719 264.457031 233.824219 264.65625 232.90625 264.945312 C 231.984375 265.238281 231.105469 265.617188 230.257812 266.082031 C 229.414062 266.546875 228.625 267.089844 227.886719 267.710938 C 227.148438 268.332031 226.476562 269.019531 225.875 269.769531 C 225.273438 270.523438 224.75 271.328125 224.304688 272.183594 C 223.859375 273.039062 223.503906 273.933594 223.234375 274.859375 C 222.96875 275.785156 222.792969 276.726562 222.707031 277.6875 C 222.667969 278.167969 222.542969 278.625 222.328125 279.054688 C 222.117188 279.488281 221.832031 279.867188 221.476562 280.191406 C 221.121094 280.515625 220.71875 280.765625 220.269531 280.9375 C 219.824219 281.109375 219.359375 281.195312 218.875 281.195312 L 218.542969 281.195312 C 218.039062 281.152344 217.558594 281.011719 217.109375 280.777344 C 216.65625 280.542969 216.269531 280.234375 215.941406 279.84375 C 215.617188 279.457031 215.375 279.019531 215.222656 278.535156 C 215.066406 278.050781 215.011719 277.554688 215.054688 277.050781 C 215.121094 276.320312 215.21875 275.597656 215.351562 274.875 C 215.484375 274.15625 215.65625 273.445312 215.859375 272.742188 C 216.0625 272.039062 216.300781 271.347656 216.570312 270.667969 C 216.84375 269.988281 217.148438 269.324219 217.484375 268.671875 C 217.820312 268.023438 218.191406 267.390625 218.589844 266.777344 C 218.988281 266.164062 219.417969 265.574219 219.875 265 C 220.332031 264.429688 220.816406 263.882812 221.328125 263.355469 C 221.835938 262.832031 222.375 262.335938 222.933594 261.863281 C 223.492188 261.394531 224.074219 260.949219 224.679688 260.535156 C 225.28125 260.121094 225.902344 259.738281 226.546875 259.382812 C 227.1875 259.03125 227.84375 258.710938 228.515625 258.421875 C 229.1875 258.132812 229.875 257.878906 230.570312 257.65625 C 231.269531 257.4375 231.976562 257.25 232.691406 257.097656 C 233.410156 256.945312 234.128906 256.828125 234.859375 256.75 C 235.585938 256.667969 236.316406 256.621094 237.046875 256.613281 C 237.78125 256.605469 238.511719 256.628906 239.238281 256.691406 C 239.746094 256.734375 240.226562 256.871094 240.679688 257.101562 C 241.132812 257.332031 241.523438 257.644531 241.851562 258.03125 C 242.183594 258.417969 242.425781 258.855469 242.582031 259.339844 C 242.738281 259.824219 242.792969 260.320312 242.753906 260.824219 Z M 230.757812 209.800781 C 229.683594 207.765625 228.261719 206.007812 226.488281 204.535156 C 224.71875 203.0625 222.734375 201.980469 220.535156 201.292969 C 220.058594 201.132812 219.632812 200.890625 219.25 200.558594 C 218.871094 200.230469 218.566406 199.839844 218.339844 199.394531 C 218.113281 198.945312 217.976562 198.46875 217.9375 197.96875 C 217.898438 197.464844 217.953125 196.976562 218.105469 196.496094 C 218.261719 196.015625 218.5 195.582031 218.820312 195.199219 C 219.144531 194.8125 219.53125 194.503906 219.976562 194.269531 C 220.421875 194.035156 220.894531 193.894531 221.394531 193.847656 C 221.894531 193.796875 222.386719 193.847656 222.867188 193.992188 C 224.433594 194.484375 225.9375 195.121094 227.378906 195.902344 C 228.820312 196.6875 230.167969 197.605469 231.429688 198.65625 C 232.691406 199.707031 233.835938 200.871094 234.867188 202.144531 C 235.898438 203.421875 236.796875 204.785156 237.558594 206.238281 C 238.324219 207.6875 238.9375 209.195312 239.398438 210.769531 C 239.863281 212.339844 240.164062 213.941406 240.304688 215.574219 C 240.449219 217.203125 240.425781 218.835938 240.242188 220.460938 C 240.054688 222.089844 239.710938 223.683594 239.207031 225.242188 C 239.085938 225.628906 238.902344 225.988281 238.664062 226.316406 C 238.429688 226.648438 238.144531 226.933594 237.816406 227.171875 C 237.488281 227.414062 237.132812 227.597656 236.746094 227.722656 C 236.359375 227.847656 235.960938 227.910156 235.554688 227.910156 C 235.15625 227.910156 234.769531 227.847656 234.390625 227.726562 C 233.90625 227.570312 233.472656 227.328125 233.082031 227 C 232.695312 226.671875 232.382812 226.285156 232.152344 225.832031 C 231.917969 225.378906 231.78125 224.902344 231.738281 224.394531 C 231.695312 223.890625 231.753906 223.394531 231.90625 222.910156 C 232.605469 220.738281 232.855469 218.511719 232.65625 216.238281 C 232.457031 213.964844 231.824219 211.820312 230.757812 209.800781 Z M 237.40625 151.039062 C 235.609375 151.421875 233.792969 151.617188 231.957031 151.617188 C 229.574219 151.640625 227.242188 151.292969 224.96875 150.578125 C 222.691406 149.863281 220.582031 148.8125 218.640625 147.429688 C 218.425781 147.285156 218.230469 147.121094 218.050781 146.941406 C 217.871094 146.757812 217.710938 146.558594 217.570312 146.34375 C 217.429688 146.128906 217.3125 145.902344 217.21875 145.664062 C 217.125 145.425781 217.054688 145.179688 217.007812 144.925781 C 216.964844 144.675781 216.945312 144.417969 216.949219 144.164062 C 216.957031 143.90625 216.988281 143.652344 217.042969 143.402344 C 217.101562 143.152344 217.179688 142.910156 217.285156 142.675781 C 217.390625 142.441406 217.519531 142.222656 217.667969 142.011719 C 217.820312 141.804688 217.988281 141.613281 218.175781 141.441406 C 218.363281 141.265625 218.566406 141.109375 218.785156 140.976562 C 219.003906 140.84375 219.234375 140.734375 219.476562 140.648438 C 219.71875 140.558594 219.964844 140.496094 220.21875 140.460938 C 220.472656 140.421875 220.726562 140.410156 220.984375 140.421875 C 221.242188 140.4375 221.492188 140.476562 221.742188 140.539062 C 221.988281 140.605469 222.230469 140.691406 222.460938 140.804688 C 222.691406 140.917969 222.90625 141.050781 223.109375 141.207031 C 226.59375 143.703125 231.109375 144.535156 235.820312 143.539062 C 238.742188 142.917969 241.386719 141.695312 243.75 139.871094 C 241.480469 138.742188 239.359375 137.382812 237.378906 135.796875 C 235.402344 134.214844 233.613281 132.4375 232.015625 130.46875 C 230.421875 128.5 229.046875 126.386719 227.902344 124.125 C 226.757812 121.863281 225.867188 119.507812 225.226562 117.054688 C 225.121094 116.570312 225.109375 116.085938 225.191406 115.597656 C 225.273438 115.109375 225.445312 114.652344 225.707031 114.230469 C 225.964844 113.808594 226.292969 113.449219 226.691406 113.15625 C 227.09375 112.863281 227.53125 112.652344 228.011719 112.527344 C 228.492188 112.40625 228.976562 112.375 229.46875 112.4375 C 229.960938 112.503906 230.421875 112.65625 230.851562 112.902344 C 231.285156 113.144531 231.65625 113.460938 231.964844 113.847656 C 232.273438 114.234375 232.5 114.664062 232.640625 115.140625 C 232.875 116.023438 233.148438 116.894531 233.464844 117.753906 C 233.785156 118.609375 234.144531 119.449219 234.542969 120.273438 C 234.941406 121.09375 235.382812 121.894531 235.863281 122.675781 C 236.339844 123.453125 236.855469 124.207031 237.410156 124.9375 C 237.960938 125.664062 238.546875 126.363281 239.171875 127.035156 C 239.792969 127.707031 240.445312 128.34375 241.128906 128.953125 C 241.8125 129.558594 242.523438 130.132812 243.265625 130.667969 C 244.003906 131.203125 244.769531 131.703125 245.558594 132.167969 C 246.347656 132.628906 247.160156 133.050781 247.988281 133.433594 C 248.820312 133.816406 249.667969 134.15625 250.53125 134.453125 C 251.394531 134.753906 252.273438 135.011719 253.164062 135.222656 C 254.050781 135.4375 254.949219 135.605469 255.855469 135.730469 C 256.761719 135.855469 257.671875 135.9375 258.585938 135.972656 C 259.5 136.007812 260.410156 136 261.324219 135.945312 C 262.238281 135.890625 263.144531 135.792969 264.050781 135.648438 C 264.953125 135.503906 265.847656 135.320312 266.730469 135.089844 C 266.976562 135.015625 267.230469 134.964844 267.488281 134.941406 C 267.742188 134.917969 268 134.921875 268.257812 134.949219 C 268.511719 134.980469 268.761719 135.035156 269.007812 135.113281 C 269.253906 135.191406 269.488281 135.292969 269.714844 135.421875 C 269.9375 135.546875 270.148438 135.695312 270.34375 135.863281 C 270.535156 136.035156 270.710938 136.21875 270.871094 136.425781 C 271.027344 136.628906 271.160156 136.847656 271.273438 137.078125 C 271.386719 137.308594 271.476562 137.550781 271.539062 137.800781 C 271.605469 138.050781 271.644531 138.304688 271.65625 138.5625 C 271.671875 138.820312 271.660156 139.074219 271.621094 139.328125 C 271.582031 139.585938 271.519531 139.832031 271.429688 140.074219 C 271.339844 140.316406 271.230469 140.546875 271.09375 140.769531 C 270.960938 140.988281 270.804688 141.191406 270.628906 141.378906 C 270.453125 141.566406 270.257812 141.734375 270.046875 141.886719 C 269.835938 142.035156 269.613281 142.160156 269.378906 142.265625 C 269.144531 142.371094 268.898438 142.449219 268.648438 142.503906 C 265.695312 143.277344 262.691406 143.664062 259.640625 143.667969 C 257.007812 143.664062 254.40625 143.371094 251.835938 142.785156 C 249.921875 144.882812 247.734375 146.636719 245.269531 148.046875 C 242.804688 149.457031 240.183594 150.453125 237.40625 151.039062 Z M 308.058594 178.765625 C 306.355469 180.792969 304.472656 182.628906 302.40625 184.28125 C 300.339844 185.933594 298.128906 187.367188 295.78125 188.582031 C 293.429688 189.796875 290.980469 190.765625 288.4375 191.496094 C 285.894531 192.226562 283.304688 192.699219 280.667969 192.914062 C 279.519531 193.007812 278.375 193.054688 277.230469 193.054688 C 276.253906 193.054688 275.277344 193.007812 274.3125 192.9375 C 274.769531 194.671875 275.453125 196.3125 276.371094 197.851562 C 277.285156 199.390625 278.398438 200.777344 279.703125 202.003906 C 280.640625 202.890625 281.65625 203.679688 282.75 204.367188 C 283.839844 205.054688 284.988281 205.628906 286.195312 206.089844 C 287.402344 206.550781 288.640625 206.886719 289.914062 207.105469 C 291.183594 207.320312 292.464844 207.410156 293.757812 207.375 C 294.265625 207.363281 294.757812 207.449219 295.230469 207.636719 C 295.703125 207.820312 296.125 208.089844 296.492188 208.441406 C 296.859375 208.792969 297.144531 209.199219 297.351562 209.667969 C 297.554688 210.132812 297.660156 210.621094 297.671875 211.128906 C 297.683594 211.636719 297.597656 212.128906 297.410156 212.601562 C 297.226562 213.074219 296.957031 213.496094 296.605469 213.863281 C 296.253906 214.230469 295.84375 214.515625 295.378906 214.71875 C 294.910156 214.921875 294.425781 215.03125 293.917969 215.039062 L 293.320312 215.039062 C 291.585938 215.046875 289.863281 214.890625 288.152344 214.566406 C 286.445312 214.246094 284.785156 213.761719 283.167969 213.125 C 281.554688 212.484375 280.011719 211.699219 278.546875 210.765625 C 277.082031 209.832031 275.714844 208.765625 274.453125 207.574219 C 272.199219 205.453125 270.367188 203.011719 268.957031 200.253906 C 267.550781 197.496094 266.648438 194.582031 266.253906 191.507812 C 260.6875 189.925781 255.699219 187.265625 251.285156 183.53125 C 251.089844 183.371094 250.910156 183.191406 250.75 182.992188 C 250.589844 182.796875 250.449219 182.585938 250.332031 182.363281 C 250.210938 182.136719 250.117188 181.902344 250.042969 181.660156 C 249.972656 181.417969 249.925781 181.167969 249.902344 180.914062 C 249.878906 180.664062 249.878906 180.410156 249.90625 180.15625 C 249.933594 179.902344 249.988281 179.65625 250.0625 179.414062 C 250.140625 179.171875 250.238281 178.941406 250.363281 178.71875 C 250.484375 178.496094 250.628906 178.285156 250.792969 178.09375 C 250.957031 177.898438 251.136719 177.722656 251.335938 177.566406 C 251.535156 177.40625 251.75 177.269531 251.976562 177.15625 C 252.199219 177.039062 252.4375 176.949219 252.679688 176.878906 C 252.925781 176.808594 253.175781 176.765625 253.429688 176.746094 C 253.679688 176.726562 253.933594 176.734375 254.1875 176.765625 C 254.4375 176.796875 254.683594 176.851562 254.925781 176.929688 C 255.167969 177.011719 255.398438 177.113281 255.617188 177.242188 C 255.839844 177.367188 256.046875 177.511719 256.238281 177.679688 C 258.277344 179.414062 260.496094 180.871094 262.898438 182.054688 C 265.296875 183.234375 267.804688 184.105469 270.421875 184.667969 L 270.683594 184.71875 C 273.769531 185.351562 276.882812 185.539062 280.023438 185.273438 C 282.160156 185.101562 284.257812 184.71875 286.320312 184.128906 C 288.378906 183.542969 290.363281 182.753906 292.265625 181.773438 C 294.171875 180.789062 295.960938 179.628906 297.632812 178.289062 C 299.308594 176.953125 300.835938 175.460938 302.214844 173.820312 C 302.542969 173.4375 302.933594 173.128906 303.382812 172.898438 C 303.832031 172.664062 304.3125 172.53125 304.816406 172.488281 C 305.320312 172.445312 305.816406 172.503906 306.296875 172.65625 C 306.78125 172.8125 307.214844 173.050781 307.601562 173.378906 C 307.988281 173.707031 308.300781 174.09375 308.53125 174.542969 C 308.765625 174.992188 308.90625 175.472656 308.949219 175.976562 C 308.992188 176.480469 308.9375 176.972656 308.785156 177.457031 C 308.632812 177.941406 308.394531 178.375 308.070312 178.765625 Z M 308.058594 178.765625 " fill-opacity="1" fill-rule="nonzero"/>
    </g>
    <g clip-path="url(#c3baece6a7)">
      <path fill="#00606e" d="M 44.261719 161.746094 C 44.667969 161.085938 45.101562 160.449219 45.566406 159.832031 C 46.03125 159.21875 46.523438 158.625 47.046875 158.058594 C 47.570312 157.488281 48.121094 156.949219 48.695312 156.433594 C 49.273438 155.921875 49.875 155.4375 50.496094 154.980469 C 51.121094 154.527344 51.765625 154.105469 52.429688 153.710938 C 53.09375 153.320312 53.777344 152.960938 54.480469 152.636719 C 55.179688 152.3125 55.894531 152.023438 56.621094 151.765625 C 57.351562 151.511719 58.089844 151.292969 58.839844 151.109375 C 59.589844 150.929688 60.347656 150.785156 61.113281 150.675781 C 61.875 150.566406 62.644531 150.496094 63.414062 150.464844 C 64.1875 150.429688 64.957031 150.433594 65.730469 150.476562 C 66.5 150.519531 67.265625 150.601562 68.03125 150.71875 C 68.792969 150.835938 69.546875 150.992188 70.296875 151.183594 C 71.042969 151.375 71.78125 151.601562 72.507812 151.867188 C 73.230469 152.128906 73.941406 152.429688 74.636719 152.761719 C 75.335938 153.097656 76.011719 153.460938 76.671875 153.863281 C 77.105469 154.128906 77.574219 154.296875 78.078125 154.375 C 78.578125 154.453125 79.078125 154.433594 79.570312 154.3125 C 80.066406 154.191406 80.519531 153.984375 80.929688 153.683594 C 81.339844 153.382812 81.675781 153.015625 81.941406 152.582031 C 82.203125 152.148438 82.375 151.679688 82.453125 151.179688 C 82.53125 150.675781 82.511719 150.175781 82.390625 149.683594 C 82.269531 149.191406 82.058594 148.738281 81.761719 148.328125 C 81.460938 147.917969 81.09375 147.578125 80.660156 147.316406 C 79.890625 146.847656 79.101562 146.414062 78.292969 146.015625 C 77.484375 145.613281 76.660156 145.25 75.820312 144.921875 C 74.984375 144.59375 74.128906 144.300781 73.265625 144.046875 C 72.402344 143.789062 71.527344 143.574219 70.644531 143.394531 C 69.761719 143.214844 68.871094 143.070312 67.976562 142.96875 C 67.082031 142.867188 66.183594 142.800781 65.28125 142.777344 C 64.382812 142.75 63.480469 142.765625 62.582031 142.816406 C 61.683594 142.871094 60.785156 142.960938 59.894531 143.09375 C 59.003906 143.222656 58.117188 143.390625 57.242188 143.597656 C 56.363281 143.800781 55.496094 144.046875 54.640625 144.328125 C 53.785156 144.609375 52.941406 144.925781 52.113281 145.28125 C 51.285156 145.632812 50.472656 146.023438 49.675781 146.449219 C 48.878906 146.871094 48.105469 147.328125 47.351562 147.820312 C 46.59375 148.3125 45.859375 148.835938 45.148438 149.390625 C 44.441406 149.945312 43.753906 150.527344 43.09375 151.140625 C 42.433594 151.753906 41.800781 152.394531 41.195312 153.066406 C 39.726562 146.007812 39.398438 138.898438 40.214844 131.738281 C 40.71875 127.609375 41.789062 123.632812 43.417969 119.804688 C 45.046875 115.980469 47.171875 112.453125 49.792969 109.226562 C 50.539062 113.171875 51.984375 116.839844 54.136719 120.226562 C 54.414062 120.652344 54.757812 121.011719 55.175781 121.304688 C 55.59375 121.59375 56.046875 121.792969 56.542969 121.902344 C 57.042969 122.011719 57.539062 122.019531 58.039062 121.929688 C 58.539062 121.839844 59.003906 121.660156 59.429688 121.386719 C 59.859375 121.113281 60.21875 120.765625 60.507812 120.351562 C 60.800781 119.933594 61 119.476562 61.109375 118.980469 C 61.21875 118.484375 61.226562 117.988281 61.140625 117.484375 C 61.050781 116.984375 60.871094 116.523438 60.597656 116.09375 C 59.253906 113.984375 58.273438 111.71875 57.652344 109.296875 C 57.027344 106.875 56.792969 104.414062 56.949219 101.921875 C 56.964844 101.738281 56.964844 101.554688 56.949219 101.371094 C 57.035156 100.441406 57.167969 99.523438 57.351562 98.605469 C 57.53125 97.691406 57.757812 96.789062 58.03125 95.898438 C 58.304688 95.007812 58.621094 94.132812 58.984375 93.273438 C 59.347656 92.417969 59.753906 91.578125 60.199219 90.761719 C 60.648438 89.945312 61.136719 89.152344 61.667969 88.382812 C 62.195312 87.617188 62.761719 86.878906 63.367188 86.167969 C 63.972656 85.460938 64.609375 84.78125 65.285156 84.136719 C 65.957031 83.492188 66.660156 82.886719 67.398438 82.3125 C 68.132812 81.742188 68.894531 81.207031 69.6875 80.714844 C 70.476562 80.21875 71.289062 79.765625 72.125 79.355469 C 72.960938 78.945312 73.816406 78.578125 74.691406 78.253906 C 75.566406 77.929688 76.453125 77.648438 77.355469 77.417969 C 78.257812 77.183594 79.167969 76.996094 80.089844 76.855469 C 81.011719 76.714844 81.9375 76.625 82.871094 76.578125 C 83.800781 76.53125 84.730469 76.535156 85.660156 76.585938 C 86.59375 76.632812 87.519531 76.730469 88.4375 76.875 L 88.628906 76.917969 C 90.792969 77.257812 92.867188 77.882812 94.855469 78.800781 C 96.84375 79.71875 98.667969 80.890625 100.324219 82.316406 C 100.515625 82.484375 100.722656 82.632812 100.941406 82.761719 C 101.160156 82.890625 101.390625 82.996094 101.632812 83.078125 C 101.871094 83.160156 102.117188 83.21875 102.371094 83.25 C 102.621094 83.285156 102.875 83.292969 103.128906 83.273438 C 103.382812 83.257812 103.632812 83.214844 103.878906 83.148438 C 104.121094 83.082031 104.359375 82.992188 104.585938 82.878906 C 104.8125 82.765625 105.027344 82.628906 105.226562 82.472656 C 105.429688 82.316406 105.609375 82.140625 105.777344 81.949219 C 105.941406 81.753906 106.085938 81.546875 106.210938 81.328125 C 106.335938 81.105469 106.4375 80.875 106.515625 80.632812 C 106.59375 80.390625 106.648438 80.140625 106.675781 79.890625 C 106.707031 79.636719 106.710938 79.382812 106.6875 79.132812 C 106.667969 78.878906 106.621094 78.628906 106.550781 78.382812 C 106.480469 78.140625 106.386719 77.90625 106.269531 77.679688 C 106.152344 77.453125 106.011719 77.242188 105.855469 77.046875 C 105.695312 76.847656 105.515625 76.667969 105.320312 76.503906 C 102.902344 74.421875 100.226562 72.753906 97.292969 71.496094 C 100.851562 69.667969 104.582031 68.3125 108.484375 67.421875 C 118.292969 65.433594 130.46875 66.605469 139.78125 73.207031 C 136.046875 74.675781 132.742188 76.804688 129.863281 79.597656 C 129.515625 79.953125 129.246094 80.363281 129.058594 80.824219 C 128.871094 81.285156 128.773438 81.761719 128.773438 82.261719 C 128.773438 82.757812 128.863281 83.238281 129.050781 83.703125 C 129.238281 84.164062 129.503906 84.574219 129.847656 84.933594 C 130.195312 85.289062 130.59375 85.570312 131.050781 85.773438 C 131.503906 85.976562 131.980469 86.085938 132.480469 86.101562 C 132.976562 86.117188 133.460938 86.039062 133.929688 85.867188 C 134.394531 85.695312 134.8125 85.441406 135.183594 85.109375 C 136.714844 83.621094 138.425781 82.378906 140.316406 81.382812 C 142.207031 80.386719 144.195312 79.675781 146.289062 79.25 L 146.476562 79.207031 C 147.644531 78.980469 148.824219 78.832031 150.011719 78.769531 C 151.199219 78.703125 152.386719 78.714844 153.574219 78.8125 C 154.761719 78.90625 155.933594 79.082031 157.097656 79.335938 C 158.261719 79.59375 159.398438 79.925781 160.515625 80.335938 C 161.632812 80.746094 162.71875 81.226562 163.769531 81.785156 C 164.824219 82.34375 165.832031 82.96875 166.796875 83.664062 C 167.765625 84.359375 168.679688 85.113281 169.542969 85.933594 C 170.40625 86.753906 171.210938 87.625 171.957031 88.554688 C 172.703125 89.480469 173.382812 90.457031 173.992188 91.476562 C 174.605469 92.496094 175.148438 93.554688 175.617188 94.648438 C 176.085938 95.742188 176.476562 96.863281 176.792969 98.011719 C 177.109375 99.160156 177.347656 100.320312 177.507812 101.5 C 177.664062 102.679688 177.742188 103.867188 177.742188 105.058594 C 177.738281 106.246094 177.65625 107.433594 177.492188 108.609375 C 177.328125 109.789062 177.085938 110.953125 176.761719 112.097656 C 176.441406 113.246094 176.042969 114.363281 175.570312 115.453125 C 175.457031 115.625 175.359375 115.804688 175.269531 115.992188 C 174.089844 118.613281 172.460938 120.921875 170.390625 122.914062 C 170.023438 123.269531 169.742188 123.679688 169.539062 124.144531 C 169.335938 124.609375 169.230469 125.097656 169.222656 125.605469 C 169.210938 126.113281 169.300781 126.605469 169.488281 127.078125 C 169.675781 127.550781 169.945312 127.96875 170.296875 128.335938 C 170.652344 128.699219 171.058594 128.984375 171.527344 129.1875 C 171.992188 129.390625 172.480469 129.496094 172.988281 129.503906 C 173.496094 129.511719 173.988281 129.425781 174.460938 129.238281 C 174.933594 129.050781 175.351562 128.78125 175.71875 128.429688 C 177.78125 126.441406 179.523438 124.203125 180.941406 121.714844 C 182.4375 123.683594 183.652344 125.808594 184.597656 128.09375 C 185.539062 130.378906 186.175781 132.742188 186.503906 135.191406 C 188.019531 144.816406 186.3125 154.015625 180.851562 161.96875 C 180.613281 161.753906 180.351562 161.570312 180.066406 161.425781 C 175.605469 159.15625 170.871094 158.019531 165.863281 158.019531 C 165.351562 158.019531 164.863281 158.117188 164.394531 158.3125 C 163.925781 158.507812 163.511719 158.785156 163.152344 159.144531 C 162.792969 159.503906 162.515625 159.917969 162.320312 160.386719 C 162.125 160.855469 162.027344 161.34375 162.027344 161.855469 C 162.027344 162.363281 162.125 162.851562 162.320312 163.320312 C 162.515625 163.789062 162.792969 164.203125 163.152344 164.5625 C 163.511719 164.921875 163.925781 165.199219 164.394531 165.394531 C 164.863281 165.589844 165.351562 165.6875 165.863281 165.6875 C 169.351562 165.675781 172.675781 166.414062 175.832031 167.902344 C 176.917969 168.457031 177.960938 169.082031 178.960938 169.773438 C 179.964844 170.46875 180.914062 171.222656 181.816406 172.042969 C 182.714844 172.863281 183.558594 173.742188 184.339844 174.675781 C 185.125 175.605469 185.84375 176.585938 186.496094 177.617188 C 187.148438 178.644531 187.730469 179.710938 188.238281 180.816406 C 188.75 181.921875 189.183594 183.058594 189.542969 184.222656 C 189.898438 185.386719 190.179688 186.570312 190.378906 187.769531 C 190.582031 188.972656 190.703125 190.183594 190.742188 191.398438 C 190.78125 192.617188 190.738281 193.832031 190.617188 195.042969 C 190.492188 196.253906 190.289062 197.453125 190.007812 198.636719 C 189.722656 199.824219 189.363281 200.984375 188.925781 202.121094 C 188.488281 203.257812 187.976562 204.359375 187.390625 205.429688 C 186.808594 206.496094 186.152344 207.523438 185.433594 208.503906 C 184.710938 209.484375 183.925781 210.414062 183.082031 211.289062 C 182.234375 212.167969 181.335938 212.984375 180.378906 213.738281 C 179.425781 214.496094 178.425781 215.1875 177.378906 215.808594 C 173.824219 217.792969 170.015625 218.785156 165.945312 218.785156 C 165.4375 218.785156 164.949219 218.882812 164.476562 219.078125 C 164.007812 219.269531 163.59375 219.546875 163.234375 219.90625 C 162.875 220.265625 162.597656 220.679688 162.402344 221.152344 C 162.210938 221.621094 162.113281 222.109375 162.113281 222.617188 C 162.113281 223.125 162.210938 223.613281 162.402344 224.085938 C 162.597656 224.554688 162.875 224.96875 163.234375 225.328125 C 163.59375 225.6875 164.007812 225.964844 164.476562 226.160156 C 164.949219 226.351562 165.4375 226.449219 165.945312 226.449219 C 168.753906 226.453125 171.515625 226.078125 174.226562 225.335938 C 176.9375 224.589844 179.5 223.496094 181.914062 222.054688 L 182.074219 221.953125 C 182.777344 223.183594 183.398438 224.457031 183.933594 225.769531 C 184.46875 227.082031 184.914062 228.425781 185.273438 229.800781 C 185.628906 231.171875 185.890625 232.5625 186.0625 233.972656 C 186.234375 235.378906 186.3125 236.792969 186.296875 238.210938 C 186.277344 239.628906 186.167969 241.042969 185.960938 242.445312 C 185.757812 243.847656 185.460938 245.230469 185.070312 246.597656 C 184.679688 247.960938 184.203125 249.292969 183.636719 250.59375 C 183.070312 251.894531 182.417969 253.148438 181.683594 254.363281 L 181.605469 254.292969 C 178.433594 251.867188 174.914062 250.164062 171.042969 249.183594 C 170.550781 249.058594 170.050781 249.03125 169.550781 249.101562 C 169.046875 249.171875 168.574219 249.339844 168.136719 249.597656 C 167.699219 249.855469 167.328125 250.1875 167.023438 250.59375 C 166.71875 251 166.503906 251.449219 166.375 251.941406 C 166.25 252.433594 166.222656 252.929688 166.292969 253.433594 C 166.363281 253.9375 166.527344 254.40625 166.785156 254.84375 C 167.042969 255.28125 167.375 255.65625 167.78125 255.960938 C 168.183594 256.265625 168.632812 256.484375 169.125 256.613281 C 171.984375 257.335938 174.585938 258.597656 176.925781 260.394531 C 177.101562 260.527344 177.289062 260.644531 177.488281 260.75 C 178.195312 261.328125 178.871094 261.9375 179.511719 262.585938 C 180.15625 263.234375 180.761719 263.917969 181.328125 264.628906 C 181.898438 265.34375 182.429688 266.085938 182.917969 266.855469 C 183.40625 267.625 183.855469 268.417969 184.257812 269.238281 C 184.664062 270.054688 185.023438 270.890625 185.339844 271.75 C 185.652344 272.605469 185.921875 273.476562 186.140625 274.363281 C 186.363281 275.246094 186.535156 276.140625 186.660156 277.046875 C 186.785156 277.949219 186.863281 278.859375 186.890625 279.769531 C 186.917969 280.683594 186.898438 281.59375 186.828125 282.503906 C 186.757812 283.414062 186.636719 284.316406 186.472656 285.214844 C 186.304688 286.109375 186.089844 286.996094 185.828125 287.871094 C 185.566406 288.746094 185.257812 289.601562 184.902344 290.445312 C 184.546875 291.285156 184.152344 292.105469 183.707031 292.902344 C 183.265625 293.699219 182.78125 294.472656 182.257812 295.21875 C 181.734375 295.964844 181.167969 296.683594 180.566406 297.367188 C 179.964844 298.054688 179.328125 298.707031 178.65625 299.324219 C 177.984375 299.941406 177.28125 300.523438 176.546875 301.0625 C 175.8125 301.605469 175.054688 302.109375 174.265625 302.566406 C 173.476562 303.027344 172.667969 303.445312 171.835938 303.820312 C 171.003906 304.191406 170.152344 304.519531 169.285156 304.804688 C 168.417969 305.085938 167.535156 305.320312 166.644531 305.507812 C 165.75 305.695312 164.847656 305.835938 163.941406 305.925781 C 163.035156 306.019531 162.125 306.0625 161.210938 306.054688 C 160.296875 306.046875 159.386719 305.992188 158.480469 305.890625 C 157.574219 305.785156 156.675781 305.632812 155.785156 305.433594 C 154.894531 305.230469 154.019531 304.984375 153.15625 304.691406 C 152.292969 304.394531 151.445312 304.054688 150.617188 303.667969 C 149.792969 303.285156 148.988281 302.855469 148.207031 302.382812 C 147.425781 301.914062 146.671875 301.402344 145.945312 300.847656 C 145.21875 300.296875 144.523438 299.707031 143.859375 299.078125 C 143.199219 298.453125 142.570312 297.789062 141.976562 297.097656 C 141.386719 296.402344 140.832031 295.679688 140.316406 294.925781 C 140.230469 294.648438 140.109375 294.390625 139.960938 294.144531 C 138.863281 292.335938 138.046875 290.410156 137.515625 288.363281 C 137.460938 288.113281 137.378906 287.867188 137.273438 287.632812 C 137.171875 287.398438 137.042969 287.171875 136.894531 286.964844 C 136.746094 286.753906 136.578125 286.558594 136.390625 286.382812 C 136.203125 286.207031 135.996094 286.050781 135.777344 285.917969 C 135.558594 285.78125 135.328125 285.671875 135.085938 285.582031 C 134.84375 285.492188 134.59375 285.429688 134.339844 285.390625 C 134.085938 285.351562 133.828125 285.339844 133.570312 285.355469 C 133.3125 285.367188 133.058594 285.40625 132.8125 285.46875 C 132.5625 285.535156 132.320312 285.625 132.089844 285.738281 C 131.855469 285.851562 131.640625 285.984375 131.433594 286.140625 C 131.230469 286.300781 131.042969 286.476562 130.875 286.667969 C 130.707031 286.863281 130.558594 287.074219 130.429688 287.296875 C 130.304688 287.523438 130.203125 287.757812 130.121094 288.003906 C 130.042969 288.25 129.988281 288.5 129.960938 288.753906 C 129.933594 289.011719 129.929688 289.269531 129.953125 289.523438 C 129.976562 289.78125 130.023438 290.035156 130.097656 290.28125 C 130.628906 292.324219 131.371094 294.292969 132.328125 296.175781 C 130.546875 296.414062 128.757812 296.476562 126.960938 296.359375 C 125.761719 296.292969 124.570312 296.132812 123.394531 295.882812 C 122.21875 295.628906 121.070312 295.285156 119.949219 294.855469 C 118.824219 294.421875 117.742188 293.90625 116.703125 293.304688 C 115.660156 292.703125 114.671875 292.023438 113.734375 291.269531 C 112.800781 290.511719 111.925781 289.6875 111.121094 288.796875 C 110.3125 287.90625 109.582031 286.957031 108.921875 285.949219 C 108.261719 284.941406 107.6875 283.890625 107.191406 282.792969 C 106.695312 281.695312 106.289062 280.570312 105.972656 279.410156 C 107.828125 279.40625 109.675781 279.265625 111.511719 278.992188 C 112.011719 278.917969 112.484375 278.75 112.917969 278.488281 C 113.355469 278.226562 113.722656 277.890625 114.023438 277.480469 C 114.328125 277.074219 114.539062 276.621094 114.660156 276.128906 C 114.785156 275.636719 114.808594 275.136719 114.734375 274.632812 C 114.65625 274.132812 114.488281 273.664062 114.226562 273.226562 C 113.964844 272.792969 113.628906 272.421875 113.222656 272.121094 C 112.8125 271.816406 112.359375 271.605469 111.867188 271.484375 C 111.375 271.359375 110.875 271.335938 110.375 271.410156 C 108.679688 271.667969 106.976562 271.777344 105.265625 271.738281 L 105.1875 271.738281 C 104.761719 271.738281 104.34375 271.808594 103.941406 271.949219 C 99.285156 271.671875 94.832031 270.570312 90.578125 268.652344 C 87.21875 267.132812 84.167969 265.140625 81.425781 262.679688 C 78.679688 260.214844 76.371094 257.398438 74.496094 254.222656 C 77.113281 254.128906 79.683594 253.714844 82.195312 252.976562 C 84.710938 252.238281 87.097656 251.203125 89.351562 249.867188 C 89.792969 249.609375 90.164062 249.273438 90.472656 248.867188 C 90.777344 248.460938 90.996094 248.007812 91.121094 247.515625 C 91.25 247.019531 91.277344 246.519531 91.203125 246.015625 C 91.132812 245.511719 90.964844 245.039062 90.703125 244.601562 C 90.441406 244.164062 90.105469 243.792969 89.699219 243.488281 C 89.289062 243.183594 88.835938 242.96875 88.339844 242.84375 C 87.847656 242.722656 87.347656 242.695312 86.84375 242.773438 C 86.339844 242.847656 85.867188 243.019531 85.429688 243.28125 C 83.222656 244.601562 80.859375 245.535156 78.347656 246.082031 C 75.832031 246.628906 73.296875 246.757812 70.738281 246.476562 C 50.058594 240.609375 46.136719 211.34375 55.148438 200.832031 C 55.410156 200.660156 55.652344 200.457031 55.871094 200.230469 C 57.410156 198.570312 59.152344 197.167969 61.101562 196.015625 C 61.492188 195.738281 61.816406 195.398438 62.082031 195 C 62.34375 194.601562 62.527344 194.171875 62.628906 193.703125 C 62.730469 193.234375 62.746094 192.765625 62.671875 192.292969 C 62.597656 191.824219 62.441406 191.378906 62.199219 190.964844 C 61.960938 190.550781 61.65625 190.195312 61.28125 189.898438 C 60.910156 189.597656 60.496094 189.375 60.039062 189.234375 C 59.582031 189.089844 59.117188 189.03125 58.640625 189.0625 C 58.164062 189.09375 57.707031 189.207031 57.273438 189.410156 C 54.695312 190.941406 52.386719 192.804688 50.34375 195 C 50 195.375 49.738281 195.800781 49.558594 196.277344 C 40.847656 187.371094 37.574219 173.171875 43.777344 162.382812 C 43.964844 162.191406 44.125 161.976562 44.261719 161.746094 Z M 105.300781 115.710938 C 105.21875 115.210938 105.039062 114.746094 104.769531 114.316406 C 104.503906 113.886719 104.160156 113.523438 103.746094 113.226562 C 103.335938 112.933594 102.882812 112.730469 102.386719 112.613281 C 101.890625 112.5 101.394531 112.484375 100.894531 112.566406 C 99.960938 112.71875 99.019531 112.773438 98.070312 112.738281 C 97.125 112.703125 96.191406 112.574219 95.269531 112.355469 C 94.347656 112.132812 93.457031 111.828125 92.59375 111.429688 C 91.734375 111.035156 90.917969 110.5625 90.152344 110.003906 C 89.382812 109.449219 88.679688 108.824219 88.035156 108.132812 C 87.390625 107.4375 86.816406 106.6875 86.320312 105.878906 C 85.824219 105.074219 85.410156 104.226562 85.078125 103.339844 C 84.75 102.449219 84.507812 101.539062 84.359375 100.605469 C 84.265625 100.109375 84.082031 99.652344 83.808594 99.230469 C 83.535156 98.8125 83.195312 98.457031 82.78125 98.167969 C 82.371094 97.882812 81.917969 97.683594 81.429688 97.574219 C 80.941406 97.464844 80.449219 97.453125 79.953125 97.535156 C 79.457031 97.621094 78.996094 97.792969 78.570312 98.058594 C 78.144531 98.324219 77.785156 98.660156 77.488281 99.066406 C 77.195312 99.472656 76.988281 99.917969 76.867188 100.40625 C 76.75 100.894531 76.726562 101.386719 76.800781 101.882812 C 77.011719 103.160156 77.332031 104.414062 77.761719 105.636719 C 78.195312 106.859375 78.726562 108.035156 79.363281 109.164062 C 80.003906 110.292969 80.734375 111.359375 81.558594 112.359375 C 82.378906 113.363281 83.285156 114.285156 84.269531 115.128906 C 85.257812 115.96875 86.308594 116.71875 87.425781 117.378906 C 88.542969 118.035156 89.710938 118.589844 90.925781 119.046875 C 92.140625 119.5 93.386719 119.84375 94.660156 120.078125 C 95.9375 120.3125 97.222656 120.433594 98.519531 120.445312 C 99.730469 120.441406 100.9375 120.339844 102.132812 120.136719 C 102.636719 120.054688 103.109375 119.878906 103.542969 119.609375 C 103.976562 119.34375 104.34375 119 104.640625 118.585938 C 104.9375 118.167969 105.144531 117.710938 105.257812 117.214844 C 105.375 116.714844 105.386719 116.214844 105.300781 115.710938 Z M 132.238281 259.363281 C 132.28125 259.871094 132.421875 260.351562 132.65625 260.800781 C 132.890625 261.253906 133.203125 261.640625 133.589844 261.96875 C 133.980469 262.296875 134.417969 262.535156 134.902344 262.6875 C 135.386719 262.84375 135.882812 262.898438 136.390625 262.851562 C 137.351562 262.769531 138.308594 262.78125 139.269531 262.890625 C 140.226562 262.996094 141.164062 263.195312 142.085938 263.484375 C 143.003906 263.777344 143.886719 264.15625 144.730469 264.621094 C 145.574219 265.085938 146.367188 265.628906 147.105469 266.25 C 147.84375 266.871094 148.511719 267.558594 149.117188 268.3125 C 149.71875 269.0625 150.242188 269.867188 150.683594 270.722656 C 151.128906 271.578125 151.484375 272.472656 151.753906 273.398438 C 152.023438 274.324219 152.199219 275.265625 152.28125 276.226562 C 152.324219 276.707031 152.449219 277.164062 152.660156 277.59375 C 152.875 278.027344 153.160156 278.40625 153.511719 278.730469 C 153.867188 279.054688 154.269531 279.304688 154.71875 279.476562 C 155.167969 279.652344 155.632812 279.734375 156.113281 279.734375 L 156.445312 279.734375 C 156.953125 279.691406 157.429688 279.550781 157.882812 279.316406 C 158.332031 279.082031 158.722656 278.773438 159.046875 278.382812 C 159.375 277.996094 159.617188 277.558594 159.769531 277.074219 C 159.921875 276.589844 159.976562 276.09375 159.933594 275.589844 C 159.871094 274.859375 159.773438 274.136719 159.640625 273.414062 C 159.503906 272.695312 159.335938 271.984375 159.132812 271.28125 C 158.929688 270.578125 158.691406 269.886719 158.417969 269.207031 C 158.148438 268.527344 157.84375 267.863281 157.503906 267.214844 C 157.167969 266.5625 156.800781 265.929688 156.402344 265.316406 C 156.003906 264.703125 155.574219 264.113281 155.117188 263.539062 C 154.660156 262.96875 154.175781 262.421875 153.664062 261.898438 C 153.152344 261.371094 152.617188 260.875 152.058594 260.402344 C 151.496094 259.933594 150.914062 259.488281 150.3125 259.074219 C 149.707031 258.660156 149.085938 258.277344 148.445312 257.925781 C 147.804688 257.570312 147.148438 257.25 146.472656 256.960938 C 145.800781 256.671875 145.117188 256.417969 144.417969 256.195312 C 143.71875 255.976562 143.015625 255.789062 142.296875 255.636719 C 141.582031 255.484375 140.859375 255.367188 140.132812 255.289062 C 139.40625 255.207031 138.675781 255.160156 137.941406 255.152344 C 137.210938 255.144531 136.480469 255.167969 135.75 255.230469 C 135.242188 255.273438 134.765625 255.410156 134.3125 255.640625 C 133.859375 255.871094 133.46875 256.183594 133.136719 256.570312 C 132.808594 256.957031 132.566406 257.394531 132.410156 257.878906 C 132.253906 258.363281 132.195312 258.859375 132.238281 259.363281 Z M 144.234375 208.339844 C 145.308594 206.304688 146.730469 204.546875 148.5 203.074219 C 150.269531 201.601562 152.253906 200.519531 154.453125 199.832031 C 154.929688 199.671875 155.359375 199.429688 155.738281 199.097656 C 156.121094 198.769531 156.425781 198.382812 156.652344 197.933594 C 156.878906 197.484375 157.011719 197.007812 157.054688 196.507812 C 157.09375 196.003906 157.035156 195.515625 156.882812 195.035156 C 156.730469 194.554688 156.492188 194.125 156.167969 193.738281 C 155.84375 193.351562 155.460938 193.042969 155.015625 192.808594 C 154.570312 192.574219 154.097656 192.433594 153.597656 192.386719 C 153.09375 192.335938 152.605469 192.386719 152.121094 192.53125 C 150.554688 193.023438 149.054688 193.660156 147.613281 194.445312 C 146.171875 195.226562 144.820312 196.144531 143.5625 197.195312 C 142.300781 198.246094 141.15625 199.410156 140.125 200.6875 C 139.089844 201.960938 138.195312 203.324219 137.429688 204.777344 C 136.667969 206.226562 136.050781 207.734375 135.589844 209.308594 C 135.128906 210.878906 134.828125 212.480469 134.683594 214.113281 C 134.542969 215.742188 134.566406 217.375 134.75 219 C 134.933594 220.628906 135.277344 222.222656 135.78125 223.78125 C 135.90625 224.167969 136.085938 224.527344 136.324219 224.855469 C 136.5625 225.1875 136.84375 225.472656 137.171875 225.710938 C 137.503906 225.953125 137.859375 226.136719 138.246094 226.261719 C 138.632812 226.386719 139.03125 226.449219 139.4375 226.449219 C 139.835938 226.449219 140.222656 226.390625 140.597656 226.265625 C 141.082031 226.109375 141.519531 225.867188 141.90625 225.539062 C 142.296875 225.210938 142.605469 224.824219 142.839844 224.371094 C 143.070312 223.917969 143.210938 223.441406 143.253906 222.933594 C 143.292969 222.429688 143.238281 221.933594 143.082031 221.449219 C 142.386719 219.277344 142.136719 217.054688 142.335938 214.777344 C 142.535156 212.503906 143.167969 210.359375 144.234375 208.339844 Z M 137.585938 149.578125 C 139.378906 149.960938 141.195312 150.15625 143.03125 150.15625 C 145.417969 150.179688 147.75 149.832031 150.023438 149.117188 C 152.296875 148.402344 154.40625 147.351562 156.351562 145.96875 C 156.5625 145.824219 156.757812 145.660156 156.941406 145.480469 C 157.121094 145.296875 157.28125 145.097656 157.417969 144.882812 C 157.558594 144.667969 157.675781 144.441406 157.773438 144.203125 C 157.867188 143.964844 157.9375 143.71875 157.980469 143.464844 C 158.027344 143.214844 158.046875 142.957031 158.039062 142.703125 C 158.035156 142.445312 158.003906 142.191406 157.945312 141.941406 C 157.890625 141.691406 157.808594 141.449219 157.703125 141.214844 C 157.597656 140.980469 157.472656 140.761719 157.320312 140.554688 C 157.171875 140.34375 157.003906 140.152344 156.816406 139.980469 C 156.625 139.804688 156.421875 139.652344 156.203125 139.515625 C 155.984375 139.382812 155.753906 139.273438 155.511719 139.1875 C 155.273438 139.097656 155.023438 139.035156 154.769531 139 C 154.515625 138.960938 154.261719 138.949219 154.007812 138.960938 C 153.75 138.976562 153.496094 139.015625 153.25 139.078125 C 153 139.144531 152.761719 139.230469 152.53125 139.34375 C 152.300781 139.457031 152.082031 139.589844 151.878906 139.746094 C 148.398438 142.242188 143.882812 143.074219 139.167969 142.078125 C 136.246094 141.457031 133.605469 140.234375 131.242188 138.410156 C 133.507812 137.28125 135.632812 135.921875 137.609375 134.339844 C 139.589844 132.753906 141.375 130.976562 142.972656 129.007812 C 144.570312 127.042969 145.941406 124.925781 147.085938 122.664062 C 148.230469 120.40625 149.125 118.046875 149.765625 115.59375 C 149.871094 115.113281 149.882812 114.625 149.800781 114.136719 C 149.714844 113.648438 149.542969 113.191406 149.285156 112.769531 C 149.023438 112.347656 148.695312 111.988281 148.296875 111.695312 C 147.898438 111.402344 147.460938 111.191406 146.980469 111.066406 C 146.5 110.945312 146.015625 110.914062 145.523438 110.980469 C 145.03125 111.042969 144.570312 111.195312 144.136719 111.441406 C 143.707031 111.683594 143.335938 112 143.027344 112.386719 C 142.71875 112.773438 142.492188 113.203125 142.347656 113.679688 C 142.117188 114.5625 141.84375 115.433594 141.523438 116.292969 C 141.207031 117.148438 140.847656 117.988281 140.449219 118.8125 C 140.046875 119.632812 139.609375 120.433594 139.128906 121.214844 C 138.648438 121.992188 138.132812 122.746094 137.582031 123.476562 C 137.027344 124.203125 136.441406 124.902344 135.820312 125.574219 C 135.199219 126.246094 134.546875 126.886719 133.863281 127.492188 C 133.179688 128.097656 132.464844 128.671875 131.726562 129.207031 C 130.984375 129.746094 130.21875 130.242188 129.429688 130.707031 C 128.640625 131.167969 127.832031 131.589844 127 131.972656 C 126.171875 132.355469 125.324219 132.695312 124.457031 132.996094 C 123.59375 133.292969 122.71875 133.550781 121.828125 133.761719 C 120.9375 133.976562 120.042969 134.144531 119.136719 134.269531 C 118.230469 134.394531 117.320312 134.476562 116.40625 134.511719 C 115.492188 134.546875 114.578125 134.539062 113.664062 134.484375 C 112.753906 134.429688 111.84375 134.332031 110.941406 134.1875 C 110.039062 134.046875 109.144531 133.859375 108.257812 133.628906 C 108.011719 133.554688 107.761719 133.503906 107.503906 133.480469 C 107.246094 133.457031 106.992188 133.460938 106.734375 133.488281 C 106.476562 133.519531 106.226562 133.574219 105.980469 133.652344 C 105.738281 133.730469 105.503906 133.835938 105.277344 133.960938 C 105.054688 134.085938 104.84375 134.234375 104.648438 134.402344 C 104.453125 134.574219 104.277344 134.757812 104.121094 134.964844 C 103.964844 135.167969 103.828125 135.386719 103.714844 135.617188 C 103.601562 135.851562 103.515625 136.089844 103.449219 136.339844 C 103.386719 136.589844 103.347656 136.84375 103.332031 137.101562 C 103.320312 137.359375 103.332031 137.613281 103.371094 137.867188 C 103.410156 138.125 103.472656 138.371094 103.5625 138.613281 C 103.648438 138.855469 103.761719 139.085938 103.894531 139.308594 C 104.03125 139.527344 104.1875 139.730469 104.363281 139.917969 C 104.539062 140.105469 104.730469 140.277344 104.941406 140.425781 C 105.152344 140.574219 105.375 140.699219 105.613281 140.804688 C 105.847656 140.910156 106.089844 140.988281 106.34375 141.042969 C 109.296875 141.816406 112.296875 142.203125 115.347656 142.207031 C 117.984375 142.203125 120.585938 141.910156 123.15625 141.324219 C 125.066406 143.421875 127.253906 145.175781 129.71875 146.585938 C 132.183594 147.996094 134.804688 148.992188 137.585938 149.578125 Z M 66.933594 177.304688 C 68.632812 179.332031 70.519531 181.167969 72.585938 182.820312 C 74.652344 184.472656 76.859375 185.90625 79.210938 187.121094 C 81.5625 188.335938 84.007812 189.308594 86.550781 190.035156 C 89.09375 190.765625 91.683594 191.238281 94.320312 191.453125 C 95.472656 191.550781 96.613281 191.59375 97.757812 191.59375 C 98.734375 191.59375 99.714844 191.550781 100.675781 191.480469 C 100.222656 193.210938 99.539062 194.851562 98.621094 196.390625 C 97.703125 197.929688 96.59375 199.316406 95.285156 200.542969 C 94.347656 201.429688 93.335938 202.21875 92.242188 202.90625 C 91.148438 203.59375 90 204.167969 88.796875 204.628906 C 87.589844 205.089844 86.351562 205.429688 85.078125 205.644531 C 83.804688 205.859375 82.523438 205.949219 81.234375 205.914062 C 80.726562 205.902344 80.234375 205.988281 79.761719 206.175781 C 79.285156 206.359375 78.867188 206.628906 78.5 206.980469 C 78.132812 207.332031 77.84375 207.738281 77.640625 208.207031 C 77.4375 208.671875 77.328125 209.160156 77.316406 209.667969 C 77.308594 210.175781 77.394531 210.667969 77.578125 211.140625 C 77.765625 211.613281 78.03125 212.035156 78.386719 212.402344 C 78.738281 212.769531 79.148438 213.054688 79.613281 213.257812 C 80.078125 213.460938 80.566406 213.570312 81.074219 213.578125 L 81.667969 213.578125 C 83.40625 213.585938 85.128906 213.429688 86.835938 213.105469 C 88.542969 212.785156 90.207031 212.304688 91.820312 211.664062 C 93.4375 211.023438 94.976562 210.238281 96.445312 209.304688 C 97.910156 208.371094 99.273438 207.304688 100.535156 206.113281 C 102.792969 203.992188 104.625 201.550781 106.03125 198.792969 C 107.441406 196.035156 108.34375 193.121094 108.738281 190.046875 C 114.300781 188.464844 119.289062 185.808594 123.703125 182.070312 C 123.902344 181.910156 124.078125 181.730469 124.238281 181.535156 C 124.402344 181.335938 124.539062 181.125 124.660156 180.902344 C 124.777344 180.675781 124.875 180.441406 124.945312 180.199219 C 125.019531 179.957031 125.066406 179.707031 125.089844 179.453125 C 125.113281 179.203125 125.109375 178.949219 125.082031 178.695312 C 125.054688 178.445312 125.003906 178.195312 124.925781 177.953125 C 124.851562 177.710938 124.75 177.480469 124.628906 177.257812 C 124.507812 177.035156 124.363281 176.828125 124.199219 176.632812 C 124.035156 176.4375 123.851562 176.261719 123.652344 176.105469 C 123.453125 175.945312 123.242188 175.808594 123.015625 175.695312 C 122.789062 175.578125 122.554688 175.488281 122.308594 175.417969 C 122.066406 175.347656 121.816406 175.304688 121.5625 175.285156 C 121.308594 175.265625 121.058594 175.273438 120.804688 175.304688 C 120.550781 175.335938 120.304688 175.390625 120.066406 175.46875 C 119.824219 175.550781 119.59375 175.652344 119.371094 175.78125 C 119.152344 175.90625 118.945312 176.050781 118.753906 176.21875 C 116.714844 177.953125 114.496094 179.410156 112.09375 180.59375 C 109.691406 181.773438 107.183594 182.648438 104.566406 183.207031 L 104.304688 183.257812 C 101.21875 183.890625 98.105469 184.078125 94.96875 183.8125 C 92.832031 183.640625 90.730469 183.257812 88.671875 182.671875 C 86.609375 182.082031 84.628906 181.292969 82.722656 180.3125 C 80.820312 179.328125 79.03125 178.167969 77.355469 176.828125 C 75.683594 175.492188 74.15625 174.003906 72.777344 172.359375 C 72.449219 171.976562 72.058594 171.667969 71.609375 171.4375 C 71.15625 171.203125 70.679688 171.070312 70.175781 171.027344 C 69.667969 170.984375 69.175781 171.042969 68.691406 171.195312 C 68.210938 171.351562 67.773438 171.589844 67.386719 171.917969 C 67 172.246094 66.691406 172.632812 66.457031 173.082031 C 66.222656 173.53125 66.085938 174.011719 66.042969 174.515625 C 65.996094 175.019531 66.050781 175.511719 66.203125 175.996094 C 66.355469 176.480469 66.59375 176.917969 66.917969 177.304688 Z M 66.933594 177.304688 " fill-opacity="1" fill-rule="nonzero"/>
    </g>
  </g>
</svg>